<svg xmlns="http://www.w3.org/2000/svg" xmlns:xlink="http://www.w3.org/1999/xlink" width="500" zoomAndPan="magnify" viewBox="0 0 375 374.999991" height="500" preserveAspectRatio="xMidYMid meet" version="1.0"><defs><clipPath id="3ed3da0555"><path d="M 97.8125 117.1875 L 277.058594 117.1875 L 277.058594 271.046875 L 97.8125 271.046875 Z M 97.8125 117.1875 " clip-rule="nonzero"/></clipPath><clipPath id="bc9d2d3e8d"><path d="M 228 103.796875 L 240 103.796875 L 240 137 L 228 137 Z M 228 103.796875 " clip-rule="nonzero"/></clipPath><clipPath id="0ab5b10f55"><path d="M 131.214844 183 L 193 183 L 193 257 L 131.214844 257 Z M 131.214844 183 " clip-rule="nonzero"/></clipPath><clipPath id="52f1897641"><path d="M 138 171.589844 L 186 171.589844 L 186 188 L 138 188 Z M 138 171.589844 " clip-rule="nonzero"/></clipPath><clipPath id="d73e9b13a0"><path d="M 131.214844 204 L 193 204 L 193 209 L 131.214844 209 Z M 131.214844 204 " clip-rule="nonzero"/></clipPath><clipPath id="7d07849621"><path d="M 131.214844 239 L 193 239 L 193 244 L 131.214844 244 Z M 131.214844 239 " clip-rule="nonzero"/></clipPath></defs><rect x="-37.5" width="450" fill="#ffffff" y="-37.499999" height="449.999989" fill-opacity="1"/><rect x="-37.5" width="450" fill="#ffffff" y="-37.499999" height="449.999989" fill-opacity="1"/><path fill="#114e6b" d="M 150.332031 123.324219 L 223.589844 123.324219 C 224.265625 123.324219 224.816406 122.777344 224.816406 122.101562 L 224.816406 118.425781 C 224.816406 117.75 224.265625 117.199219 223.589844 117.199219 L 150.332031 117.199219 C 149.65625 117.199219 149.105469 117.75 149.105469 118.425781 L 149.105469 122.101562 C 149.105469 122.777344 149.65625 123.324219 150.332031 123.324219 " fill-opacity="1" fill-rule="nonzero"/><g clip-path="url(#3ed3da0555)"><path fill="#114e6b" d="M 258.113281 265.078125 L 116.886719 265.078125 C 109.738281 265.078125 103.9375 259.28125 103.9375 252.128906 L 103.9375 165.933594 L 271.0625 165.933594 L 271.0625 252.128906 C 271.0625 259.28125 265.265625 265.078125 258.113281 265.078125 Z M 258.113281 117.199219 L 244.417969 117.199219 C 243.738281 117.199219 243.191406 117.75 243.191406 118.425781 L 243.191406 122.101562 C 243.191406 122.777344 243.738281 123.324219 244.417969 123.324219 L 258.113281 123.324219 C 265.253906 123.324219 271.0625 129.132812 271.0625 136.285156 L 271.0625 159.808594 L 103.9375 159.808594 L 103.9375 136.285156 C 103.9375 129.132812 109.746094 123.324219 116.886719 123.324219 L 129.507812 123.324219 C 130.183594 123.324219 130.730469 122.777344 130.730469 122.101562 L 130.730469 118.425781 C 130.730469 117.75 130.183594 117.199219 129.507812 117.199219 L 116.886719 117.199219 C 106.378906 117.199219 97.8125 125.761719 97.8125 136.285156 L 97.8125 252.128906 C 97.8125 262.621094 106.398438 271.203125 116.886719 271.203125 L 258.113281 271.203125 C 268.605469 271.203125 277.1875 262.621094 277.1875 252.128906 L 277.1875 136.285156 C 277.1875 125.761719 268.625 117.199219 258.113281 117.199219 " fill-opacity="1" fill-rule="nonzero"/></g><path fill="#114e6b" d="M 139.917969 138.234375 C 142.957031 138.234375 145.433594 135.773438 145.433594 132.722656 L 145.433594 110.832031 C 145.433594 107.78125 142.957031 105.316406 139.917969 105.316406 C 136.867188 105.316406 134.40625 107.78125 134.40625 110.832031 L 134.40625 132.722656 C 134.40625 135.773438 136.867188 138.234375 139.917969 138.234375 " fill-opacity="1" fill-rule="nonzero"/><g clip-path="url(#bc9d2d3e8d)"><path fill="#114e6b" d="M 234.003906 136.726562 C 237.042969 136.726562 239.515625 134.253906 239.515625 131.214844 L 239.515625 109.308594 C 239.515625 106.273438 237.042969 103.796875 234.003906 103.796875 C 230.953125 103.796875 228.492188 106.273438 228.492188 109.308594 L 228.492188 131.214844 C 228.492188 134.253906 230.953125 136.726562 234.003906 136.726562 " fill-opacity="1" fill-rule="nonzero"/></g><g clip-path="url(#0ab5b10f55)"><path fill="#114e6b" d="M 183.4375 256.996094 L 140.089844 256.996094 C 135.214844 256.996094 131.25 253.066406 131.25 248.238281 L 131.25 204.457031 C 131.25 202.160156 132.136719 199.992188 133.753906 198.347656 L 138.890625 193.121094 C 141.3125 190.660156 140.777344 187.847656 140.84375 187.003906 C 140.851562 186.382812 140.949219 185.769531 141.125 185.183594 C 141.433594 184.171875 142.5 183.597656 143.511719 183.90625 C 144.527344 184.210938 145.097656 185.28125 144.789062 186.292969 C 144.671875 186.6875 144.65625 187.074219 144.667969 187.53125 C 144.699219 188.910156 144.792969 192.578125 141.621094 195.804688 L 136.484375 201.03125 C 135.578125 201.957031 135.078125 203.171875 135.078125 204.457031 L 135.078125 248.238281 C 135.078125 250.957031 137.324219 253.167969 140.089844 253.167969 L 183.4375 253.167969 C 186.203125 253.167969 188.449219 250.957031 188.449219 248.238281 L 188.449219 204.457031 C 188.449219 203.171875 187.949219 201.957031 187.042969 201.03125 L 181.90625 195.804688 C 179.949219 193.8125 178.863281 191.183594 178.855469 188.40625 C 178.828125 187.414062 178.929688 186.933594 178.738281 186.292969 C 178.429688 185.28125 179.003906 184.210938 180.015625 183.90625 C 181.027344 183.597656 182.09375 184.171875 182.402344 185.183594 C 182.75 186.335938 182.6875 187.152344 182.6875 188.375 C 182.6875 190.15625 183.378906 191.839844 184.636719 193.121094 L 189.773438 198.347656 C 191.390625 199.992188 192.28125 202.160156 192.28125 204.457031 L 192.28125 248.238281 C 192.28125 253.066406 188.3125 256.996094 183.4375 256.996094 Z M 144.660156 187.273438 Z M 144.660156 187.273438 " fill-opacity="1" fill-rule="nonzero"/></g><g clip-path="url(#52f1897641)"><path fill="#114e6b" d="M 183.15625 187.652344 L 140.371094 187.652344 C 139.3125 187.652344 138.457031 186.796875 138.457031 185.738281 L 138.457031 176.65625 C 138.457031 173.863281 140.730469 171.589844 143.523438 171.589844 L 180.003906 171.589844 C 182.800781 171.589844 185.074219 173.863281 185.074219 176.65625 L 185.074219 185.738281 C 185.074219 186.796875 184.214844 187.652344 183.15625 187.652344 Z M 181.242188 183.824219 L 181.242188 176.65625 C 181.242188 175.972656 180.6875 175.417969 180.003906 175.417969 L 143.523438 175.417969 C 142.839844 175.417969 142.285156 175.972656 142.285156 176.65625 L 142.285156 183.824219 C 142.777344 183.824219 180.566406 183.824219 181.242188 183.824219 Z M 181.242188 183.824219 " fill-opacity="1" fill-rule="nonzero"/></g><g clip-path="url(#d73e9b13a0)"><path fill="#114e6b" d="M 190.363281 208.300781 L 133.164062 208.300781 C 132.105469 208.300781 131.25 207.441406 131.25 206.386719 C 131.25 205.328125 132.105469 204.46875 133.164062 204.46875 L 190.363281 204.46875 C 191.421875 204.46875 192.28125 205.328125 192.28125 206.386719 C 192.28125 207.441406 191.421875 208.300781 190.363281 208.300781 Z M 190.363281 208.300781 " fill-opacity="1" fill-rule="nonzero"/></g><g clip-path="url(#7d07849621)"><path fill="#114e6b" d="M 190.363281 243.296875 L 133.164062 243.296875 C 132.105469 243.296875 131.25 242.4375 131.25 241.382812 C 131.25 240.324219 132.105469 239.46875 133.164062 239.46875 L 190.363281 239.46875 C 191.421875 239.46875 192.28125 240.324219 192.28125 241.382812 C 192.28125 242.4375 191.421875 243.296875 190.363281 243.296875 Z M 190.363281 243.296875 " fill-opacity="1" fill-rule="nonzero"/></g><path fill="#114e6b" d="M 166.113281 236.253906 L 157.414062 236.253906 C 156.359375 236.253906 155.5 235.398438 155.5 234.339844 L 155.5 230.148438 L 151.308594 230.148438 C 150.25 230.148438 149.394531 229.289062 149.394531 228.230469 L 149.394531 219.535156 C 149.394531 218.476562 150.25 217.621094 151.308594 217.621094 L 155.5 217.621094 L 155.5 213.425781 C 155.5 212.371094 156.359375 211.511719 157.414062 211.511719 L 166.113281 211.511719 C 167.171875 211.511719 168.027344 212.371094 168.027344 213.425781 L 168.027344 217.621094 L 172.21875 217.621094 C 173.277344 217.621094 174.136719 218.476562 174.136719 219.535156 L 174.136719 228.230469 C 174.136719 229.289062 173.277344 230.148438 172.21875 230.148438 L 168.027344 230.148438 L 168.027344 234.339844 C 168.027344 235.398438 167.171875 236.253906 166.113281 236.253906 Z M 159.328125 232.425781 L 164.199219 232.425781 L 164.199219 228.230469 C 164.199219 227.175781 165.054688 226.316406 166.113281 226.316406 L 170.304688 226.316406 L 170.304688 221.449219 L 166.113281 221.449219 C 165.054688 221.449219 164.199219 220.589844 164.199219 219.535156 L 164.199219 215.339844 L 159.328125 215.339844 L 159.328125 219.535156 C 159.328125 220.589844 158.472656 221.449219 157.414062 221.449219 L 153.222656 221.449219 L 153.222656 226.316406 L 157.414062 226.316406 C 158.472656 226.316406 159.328125 227.175781 159.328125 228.230469 Z M 159.328125 232.425781 " fill-opacity="1" fill-rule="nonzero"/><path fill="#114e6b" d="M 206.5 224.464844 C 202.253906 224.464844 198.796875 221.011719 198.796875 216.761719 L 198.796875 205.746094 C 198.796875 201.496094 202.253906 198.042969 206.5 198.042969 C 210.746094 198.042969 214.203125 201.496094 214.203125 205.746094 L 214.203125 216.761719 C 214.203125 221.011719 210.746094 224.464844 206.5 224.464844 Z M 206.5 201.871094 C 204.363281 201.871094 202.625 203.609375 202.625 205.746094 L 202.625 216.761719 C 202.625 218.898438 204.363281 220.636719 206.5 220.636719 C 208.636719 220.636719 210.375 218.898438 210.375 216.761719 L 210.375 205.746094 C 210.375 203.609375 208.636719 201.871094 206.5 201.871094 Z M 206.5 201.871094 " fill-opacity="1" fill-rule="nonzero"/><path fill="#114e6b" d="M 212.289062 213.167969 L 200.710938 213.167969 C 199.652344 213.167969 198.796875 212.3125 198.796875 211.253906 C 198.796875 210.195312 199.652344 209.339844 200.710938 209.339844 L 212.289062 209.339844 C 213.347656 209.339844 214.203125 210.195312 214.203125 211.253906 C 214.203125 212.3125 213.347656 213.167969 212.289062 213.167969 Z M 212.289062 213.167969 " fill-opacity="1" fill-rule="nonzero"/><path fill="#114e6b" d="M 205.84375 250.621094 L 198.511719 242.394531 C 195.679688 239.21875 195.957031 234.351562 199.136719 231.519531 C 202.3125 228.6875 207.179688 228.964844 210.011719 232.144531 L 217.34375 240.367188 C 220.175781 243.542969 219.898438 248.410156 216.722656 251.242188 C 213.550781 254.070312 208.683594 253.804688 205.84375 250.621094 Z M 200.394531 237.046875 C 200.335938 238.082031 200.683594 239.074219 201.371094 239.847656 L 208.703125 248.070312 C 210.128906 249.667969 212.574219 249.808594 214.171875 248.386719 C 215.769531 246.960938 215.910156 244.515625 214.484375 242.914062 L 207.152344 234.691406 C 206.464844 233.917969 205.515625 233.460938 204.484375 233.402344 C 202.347656 233.277344 200.515625 234.910156 200.394531 237.046875 Z M 200.394531 237.046875 " fill-opacity="1" fill-rule="nonzero"/><path fill="#114e6b" d="M 203.609375 247.148438 C 201.851562 247.148438 201.027344 244.96875 202.332031 243.804688 L 210.976562 236.101562 C 211.765625 235.394531 212.972656 235.464844 213.679688 236.253906 C 214.382812 237.042969 214.3125 238.253906 213.523438 238.957031 L 204.882812 246.664062 C 204.515625 246.988281 204.0625 247.148438 203.609375 247.148438 Z M 203.609375 247.148438 " fill-opacity="1" fill-rule="nonzero"/><path fill="#114e6b" d="M 217.414062 231.105469 C 216 227.089844 218.101562 222.695312 222.117188 221.277344 L 232.503906 217.609375 C 236.519531 216.191406 240.914062 218.296875 242.332031 222.308594 C 243.746094 226.316406 241.636719 230.722656 237.632812 232.136719 L 227.242188 235.804688 C 223.210938 237.226562 218.820312 235.085938 217.414062 231.105469 Z M 221.027344 229.832031 C 221.738281 231.84375 223.953125 232.90625 225.96875 232.195312 L 236.359375 228.527344 C 238.371094 227.816406 239.433594 225.597656 238.722656 223.585938 C 238.007812 221.566406 235.800781 220.507812 233.78125 221.222656 L 223.390625 224.886719 C 221.371094 225.601562 220.3125 227.8125 221.027344 229.832031 Z M 221.027344 229.832031 " fill-opacity="1" fill-rule="nonzero"/><path fill="#114e6b" d="M 229.996094 232.804688 L 226.140625 221.886719 C 225.789062 220.890625 226.3125 219.796875 227.308594 219.445312 C 228.308594 219.09375 229.402344 219.613281 229.753906 220.613281 L 233.605469 231.527344 C 233.957031 232.527344 233.433594 233.621094 232.4375 233.972656 C 231.445312 234.320312 230.347656 233.804688 229.996094 232.804688 Z M 229.996094 232.804688 " fill-opacity="1" fill-rule="nonzero"/><path fill="#114e6b" d="M 149.308594 181.535156 L 147.226562 181.535156 C 146.167969 181.535156 145.3125 180.679688 145.3125 179.621094 C 145.3125 178.5625 146.167969 177.707031 147.226562 177.707031 L 149.308594 177.707031 C 150.367188 177.707031 151.222656 178.5625 151.222656 179.621094 C 151.222656 180.679688 150.367188 181.535156 149.308594 181.535156 Z M 149.308594 181.535156 " fill-opacity="1" fill-rule="nonzero"/><path fill="#114e6b" d="M 158.304688 181.535156 L 156.222656 181.535156 C 155.167969 181.535156 154.308594 180.679688 154.308594 179.621094 C 154.308594 178.5625 155.167969 177.707031 156.222656 177.707031 L 158.304688 177.707031 C 159.363281 177.707031 160.222656 178.5625 160.222656 179.621094 C 160.222656 180.679688 159.363281 181.535156 158.304688 181.535156 Z M 158.304688 181.535156 " fill-opacity="1" fill-rule="nonzero"/><path fill="#114e6b" d="M 167.304688 181.535156 L 165.222656 181.535156 C 164.164062 181.535156 163.308594 180.679688 163.308594 179.621094 C 163.308594 178.5625 164.164062 177.707031 165.222656 177.707031 L 167.304688 177.707031 C 168.359375 177.707031 169.21875 178.5625 169.21875 179.621094 C 169.21875 180.679688 168.359375 181.535156 167.304688 181.535156 Z M 167.304688 181.535156 " fill-opacity="1" fill-rule="nonzero"/><path fill="#114e6b" d="M 176.300781 181.535156 L 174.21875 181.535156 C 173.160156 181.535156 172.304688 180.679688 172.304688 179.621094 C 172.304688 178.5625 173.160156 177.707031 174.21875 177.707031 L 176.300781 177.707031 C 177.359375 177.707031 178.214844 178.5625 178.214844 179.621094 C 178.214844 180.679688 177.359375 181.535156 176.300781 181.535156 Z M 176.300781 181.535156 " fill-opacity="1" fill-rule="nonzero"/></svg>