<svg xmlns="http://www.w3.org/2000/svg" xmlns:xlink="http://www.w3.org/1999/xlink" width="500" zoomAndPan="magnify" viewBox="0 0 375 374.999991" height="500" preserveAspectRatio="xMidYMid meet" version="1.0"><defs><g/><clipPath id="752f55d2aa"><path d="M 104.105469 75.683594 L 283.355469 75.683594 L 283.355469 229.542969 L 104.105469 229.542969 Z M 104.105469 75.683594 " clip-rule="nonzero"/></clipPath><clipPath id="68dc184898"><path d="M 234 62.292969 L 246 62.292969 L 246 96 L 234 96 Z M 234 62.292969 " clip-rule="nonzero"/></clipPath><clipPath id="6519e97658"><path d="M 137.507812 142 L 199 142 L 199 215.585938 L 137.507812 215.585938 Z M 137.507812 142 " clip-rule="nonzero"/></clipPath><clipPath id="98497a8724"><path d="M 144 130.085938 L 192 130.085938 L 192 147 L 144 147 Z M 144 130.085938 " clip-rule="nonzero"/></clipPath><clipPath id="35f1432903"><path d="M 137.507812 162 L 199 162 L 199 167 L 137.507812 167 Z M 137.507812 162 " clip-rule="nonzero"/></clipPath><clipPath id="b73c05ca9d"><path d="M 137.507812 197 L 199 197 L 199 202 L 137.507812 202 Z M 137.507812 197 " clip-rule="nonzero"/></clipPath></defs><rect x="-37.5" width="450" fill="#ffffff" y="-37.499999" height="449.999989" fill-opacity="1"/><rect x="-37.5" width="450" fill="#ffffff" y="-37.499999" height="449.999989" fill-opacity="1"/><path fill="#114e6b" d="M 156.625 81.820312 L 229.882812 81.820312 C 230.558594 81.820312 231.109375 81.273438 231.109375 80.597656 L 231.109375 76.921875 C 231.109375 76.246094 230.558594 75.695312 229.882812 75.695312 L 156.625 75.695312 C 155.949219 75.695312 155.402344 76.246094 155.402344 76.921875 L 155.402344 80.597656 C 155.402344 81.273438 155.949219 81.820312 156.625 81.820312 " fill-opacity="1" fill-rule="nonzero"/><g clip-path="url(#752f55d2aa)"><path fill="#114e6b" d="M 264.40625 223.574219 L 123.179688 223.574219 C 116.03125 223.574219 110.234375 217.777344 110.234375 210.625 L 110.234375 124.429688 L 277.355469 124.429688 L 277.355469 210.625 C 277.355469 217.777344 271.558594 223.574219 264.40625 223.574219 Z M 264.40625 75.695312 L 250.710938 75.695312 C 250.035156 75.695312 249.484375 76.246094 249.484375 76.921875 L 249.484375 80.59375 C 249.484375 81.273438 250.035156 81.820312 250.710938 81.820312 L 264.40625 81.820312 C 271.550781 81.820312 277.355469 87.628906 277.355469 94.78125 L 277.355469 118.304688 L 110.234375 118.304688 L 110.234375 94.78125 C 110.234375 87.628906 116.039062 81.820312 123.179688 81.820312 L 135.800781 81.820312 C 136.476562 81.820312 137.023438 81.273438 137.023438 80.59375 L 137.023438 76.921875 C 137.023438 76.246094 136.476562 75.695312 135.800781 75.695312 L 123.179688 75.695312 C 112.671875 75.695312 104.105469 84.257812 104.105469 94.78125 L 104.105469 210.625 C 104.105469 221.113281 112.691406 229.699219 123.179688 229.699219 L 264.40625 229.699219 C 274.898438 229.699219 283.480469 221.113281 283.480469 210.625 L 283.480469 94.78125 C 283.480469 84.257812 274.917969 75.695312 264.40625 75.695312 " fill-opacity="1" fill-rule="nonzero"/></g><path fill="#114e6b" d="M 146.210938 96.730469 C 149.25 96.730469 151.726562 94.269531 151.726562 91.21875 L 151.726562 69.324219 C 151.726562 66.277344 149.25 63.8125 146.210938 63.8125 C 143.160156 63.8125 140.699219 66.277344 140.699219 69.324219 L 140.699219 91.21875 C 140.699219 94.269531 143.160156 96.730469 146.210938 96.730469 " fill-opacity="1" fill-rule="nonzero"/><g clip-path="url(#68dc184898)"><path fill="#114e6b" d="M 240.296875 95.222656 C 243.335938 95.222656 245.808594 92.75 245.808594 89.710938 L 245.808594 67.804688 C 245.808594 64.769531 243.335938 62.292969 240.296875 62.292969 C 237.246094 62.292969 234.785156 64.769531 234.785156 67.804688 L 234.785156 89.710938 C 234.785156 92.75 237.246094 95.222656 240.296875 95.222656 " fill-opacity="1" fill-rule="nonzero"/></g><g clip-path="url(#6519e97658)"><path fill="#114e6b" d="M 189.730469 215.492188 L 146.382812 215.492188 C 141.507812 215.492188 137.542969 211.5625 137.542969 206.734375 L 137.542969 162.953125 C 137.542969 160.65625 138.433594 158.488281 140.046875 156.84375 L 145.183594 151.617188 C 147.605469 149.152344 147.070312 146.339844 147.136719 145.5 C 147.144531 144.878906 147.242188 144.265625 147.417969 143.679688 C 147.726562 142.667969 148.792969 142.09375 149.808594 142.402344 C 150.820312 142.707031 151.390625 143.777344 151.082031 144.789062 C 150.964844 145.183594 150.949219 145.570312 150.960938 146.023438 C 150.996094 147.40625 151.085938 151.074219 147.914062 154.300781 L 142.777344 159.527344 C 141.871094 160.449219 141.371094 161.667969 141.371094 162.953125 L 141.371094 206.734375 C 141.371094 209.453125 143.621094 211.664062 146.382812 211.664062 L 189.730469 211.664062 C 192.496094 211.664062 194.742188 209.453125 194.742188 206.734375 L 194.742188 162.953125 C 194.742188 161.667969 194.242188 160.449219 193.335938 159.527344 L 188.199219 154.300781 C 186.242188 152.308594 185.160156 149.679688 185.152344 146.898438 C 185.121094 145.910156 185.226562 145.429688 185.03125 144.789062 C 184.722656 143.777344 185.296875 142.707031 186.308594 142.402344 C 187.320312 142.09375 188.390625 142.667969 188.695312 143.679688 C 189.042969 144.832031 188.980469 145.644531 188.980469 146.871094 C 188.980469 148.652344 189.671875 150.335938 190.929688 151.617188 L 196.066406 156.84375 C 197.683594 158.488281 198.574219 160.65625 198.574219 162.953125 L 198.574219 206.734375 C 198.574219 211.5625 194.605469 215.492188 189.730469 215.492188 Z M 150.957031 145.769531 Z M 150.957031 145.769531 " fill-opacity="1" fill-rule="nonzero"/></g><g clip-path="url(#98497a8724)"><path fill="#114e6b" d="M 189.453125 146.148438 L 146.664062 146.148438 C 145.605469 146.148438 144.75 145.289062 144.75 144.234375 L 144.75 135.152344 C 144.75 132.359375 147.023438 130.085938 149.816406 130.085938 L 186.296875 130.085938 C 189.09375 130.085938 191.367188 132.359375 191.367188 135.152344 L 191.367188 144.234375 C 191.367188 145.289062 190.507812 146.148438 189.453125 146.148438 Z M 187.535156 142.320312 L 187.535156 135.152344 C 187.535156 134.46875 186.980469 133.914062 186.296875 133.914062 L 149.816406 133.914062 C 149.132812 133.914062 148.578125 134.46875 148.578125 135.152344 L 148.578125 142.320312 C 149.070312 142.320312 186.859375 142.320312 187.535156 142.320312 Z M 187.535156 142.320312 " fill-opacity="1" fill-rule="nonzero"/></g><g clip-path="url(#35f1432903)"><path fill="#114e6b" d="M 196.660156 166.796875 L 139.457031 166.796875 C 138.398438 166.796875 137.542969 165.9375 137.542969 164.878906 C 137.542969 163.824219 138.398438 162.964844 139.457031 162.964844 L 196.660156 162.964844 C 197.714844 162.964844 198.574219 163.824219 198.574219 164.878906 C 198.574219 165.9375 197.714844 166.796875 196.660156 166.796875 Z M 196.660156 166.796875 " fill-opacity="1" fill-rule="nonzero"/></g><g clip-path="url(#b73c05ca9d)"><path fill="#114e6b" d="M 196.660156 201.792969 L 139.457031 201.792969 C 138.398438 201.792969 137.542969 200.933594 137.542969 199.878906 C 137.542969 198.820312 138.398438 197.960938 139.457031 197.960938 L 196.660156 197.960938 C 197.714844 197.960938 198.574219 198.820312 198.574219 199.878906 C 198.574219 200.933594 197.714844 201.792969 196.660156 201.792969 Z M 196.660156 201.792969 " fill-opacity="1" fill-rule="nonzero"/></g><path fill="#114e6b" d="M 172.40625 194.75 L 163.707031 194.75 C 162.652344 194.75 161.792969 193.890625 161.792969 192.835938 L 161.792969 188.644531 L 157.601562 188.644531 C 156.542969 188.644531 155.6875 187.785156 155.6875 186.726562 L 155.6875 178.03125 C 155.6875 176.972656 156.542969 176.117188 157.601562 176.117188 L 161.792969 176.117188 L 161.792969 171.921875 C 161.792969 170.867188 162.652344 170.007812 163.707031 170.007812 L 172.40625 170.007812 C 173.464844 170.007812 174.320312 170.867188 174.320312 171.921875 L 174.320312 176.117188 L 178.511719 176.117188 C 179.570312 176.117188 180.429688 176.972656 180.429688 178.03125 L 180.429688 186.726562 C 180.429688 187.785156 179.570312 188.644531 178.511719 188.644531 L 174.320312 188.644531 L 174.320312 192.835938 C 174.320312 193.890625 173.464844 194.75 172.40625 194.75 Z M 165.621094 190.921875 L 170.492188 190.921875 L 170.492188 186.726562 C 170.492188 185.671875 171.347656 184.8125 172.40625 184.8125 L 176.597656 184.8125 L 176.597656 179.945312 L 172.40625 179.945312 C 171.347656 179.945312 170.492188 179.085938 170.492188 178.03125 L 170.492188 173.835938 L 165.621094 173.835938 L 165.621094 178.03125 C 165.621094 179.085938 164.765625 179.945312 163.707031 179.945312 L 159.515625 179.945312 L 159.515625 184.8125 L 163.707031 184.8125 C 164.765625 184.8125 165.621094 185.671875 165.621094 186.726562 Z M 165.621094 190.921875 " fill-opacity="1" fill-rule="nonzero"/><path fill="#114e6b" d="M 212.792969 182.960938 C 208.546875 182.960938 205.089844 179.507812 205.089844 175.257812 L 205.089844 164.242188 C 205.089844 159.992188 208.546875 156.539062 212.792969 156.539062 C 217.039062 156.539062 220.496094 159.992188 220.496094 164.242188 L 220.496094 175.257812 C 220.496094 179.507812 217.039062 182.960938 212.792969 182.960938 Z M 212.792969 160.367188 C 210.65625 160.367188 208.917969 162.105469 208.917969 164.242188 L 208.917969 175.257812 C 208.917969 177.394531 210.65625 179.132812 212.792969 179.132812 C 214.929688 179.132812 216.667969 177.394531 216.667969 175.257812 L 216.667969 164.242188 C 216.667969 162.105469 214.929688 160.367188 212.792969 160.367188 Z M 212.792969 160.367188 " fill-opacity="1" fill-rule="nonzero"/><path fill="#114e6b" d="M 218.582031 171.664062 L 207.003906 171.664062 C 205.945312 171.664062 205.089844 170.808594 205.089844 169.75 C 205.089844 168.691406 205.945312 167.835938 207.003906 167.835938 L 218.582031 167.835938 C 219.640625 167.835938 220.496094 168.691406 220.496094 169.75 C 220.496094 170.808594 219.640625 171.664062 218.582031 171.664062 Z M 218.582031 171.664062 " fill-opacity="1" fill-rule="nonzero"/><path fill="#114e6b" d="M 212.136719 209.117188 L 204.804688 200.890625 C 201.972656 197.714844 202.25 192.847656 205.429688 190.015625 C 208.605469 187.183594 213.472656 187.460938 216.304688 190.640625 L 223.636719 198.863281 C 226.472656 202.039062 226.191406 206.90625 223.015625 209.738281 C 219.84375 212.566406 214.976562 212.300781 212.136719 209.117188 Z M 206.6875 195.542969 C 206.628906 196.578125 206.976562 197.570312 207.664062 198.34375 L 214.996094 206.566406 C 216.421875 208.164062 218.867188 208.304688 220.464844 206.878906 C 222.0625 205.457031 222.203125 203.007812 220.78125 201.410156 L 213.445312 193.1875 C 212.757812 192.414062 211.808594 191.957031 210.777344 191.898438 C 208.640625 191.773438 206.808594 193.40625 206.6875 195.542969 Z M 206.6875 195.542969 " fill-opacity="1" fill-rule="nonzero"/><path fill="#114e6b" d="M 209.902344 205.644531 C 208.144531 205.644531 207.320312 203.464844 208.625 202.300781 L 217.269531 194.597656 C 218.058594 193.890625 219.269531 193.960938 219.972656 194.75 C 220.675781 195.539062 220.605469 196.75 219.816406 197.453125 L 211.175781 205.160156 C 210.808594 205.484375 210.355469 205.644531 209.902344 205.644531 Z M 209.902344 205.644531 " fill-opacity="1" fill-rule="nonzero"/><path fill="#114e6b" d="M 223.707031 189.601562 C 222.292969 185.585938 224.394531 181.191406 228.410156 179.773438 L 238.796875 176.105469 C 242.8125 174.6875 247.210938 176.789062 248.625 180.804688 C 250.039062 184.8125 247.933594 189.21875 243.925781 190.632812 L 233.535156 194.300781 C 229.503906 195.722656 225.113281 193.582031 223.707031 189.601562 Z M 227.320312 188.328125 C 228.03125 190.339844 230.246094 191.402344 232.261719 190.691406 L 242.652344 187.023438 C 244.667969 186.3125 245.726562 184.09375 245.015625 182.082031 C 244.304688 180.0625 242.09375 179.003906 240.074219 179.714844 L 229.683594 183.382812 C 227.664062 184.097656 226.605469 186.308594 227.320312 188.328125 Z M 227.320312 188.328125 " fill-opacity="1" fill-rule="nonzero"/><path fill="#114e6b" d="M 236.289062 191.300781 L 232.433594 180.382812 C 232.082031 179.386719 232.605469 178.292969 233.605469 177.9375 C 234.601562 177.585938 235.695312 178.109375 236.046875 179.109375 L 239.898438 190.023438 C 240.25 191.023438 239.730469 192.117188 238.730469 192.46875 C 237.738281 192.816406 236.640625 192.300781 236.289062 191.300781 Z M 236.289062 191.300781 " fill-opacity="1" fill-rule="nonzero"/><path fill="#114e6b" d="M 155.601562 140.03125 L 153.519531 140.03125 C 152.460938 140.03125 151.605469 139.175781 151.605469 138.117188 C 151.605469 137.058594 152.460938 136.203125 153.519531 136.203125 L 155.601562 136.203125 C 156.660156 136.203125 157.515625 137.058594 157.515625 138.117188 C 157.515625 139.175781 156.660156 140.03125 155.601562 140.03125 Z M 155.601562 140.03125 " fill-opacity="1" fill-rule="nonzero"/><path fill="#114e6b" d="M 164.601562 140.03125 L 162.515625 140.03125 C 161.460938 140.03125 160.601562 139.175781 160.601562 138.117188 C 160.601562 137.058594 161.460938 136.203125 162.515625 136.203125 L 164.601562 136.203125 C 165.65625 136.203125 166.515625 137.058594 166.515625 138.117188 C 166.515625 139.175781 165.65625 140.03125 164.601562 140.03125 Z M 164.601562 140.03125 " fill-opacity="1" fill-rule="nonzero"/><path fill="#114e6b" d="M 173.597656 140.03125 L 171.515625 140.03125 C 170.457031 140.03125 169.601562 139.175781 169.601562 138.117188 C 169.601562 137.058594 170.457031 136.203125 171.515625 136.203125 L 173.597656 136.203125 C 174.65625 136.203125 175.511719 137.058594 175.511719 138.117188 C 175.511719 139.175781 174.65625 140.03125 173.597656 140.03125 Z M 173.597656 140.03125 " fill-opacity="1" fill-rule="nonzero"/><path fill="#114e6b" d="M 182.59375 140.03125 L 180.511719 140.03125 C 179.457031 140.03125 178.597656 139.175781 178.597656 138.117188 C 178.597656 137.058594 179.457031 136.203125 180.511719 136.203125 L 182.59375 136.203125 C 183.652344 136.203125 184.507812 137.058594 184.507812 138.117188 C 184.507812 139.175781 183.652344 140.03125 182.59375 140.03125 Z M 182.59375 140.03125 " fill-opacity="1" fill-rule="nonzero"/><g fill="#023047" fill-opacity="1"><g transform="translate(87.051796, 292.740346)"><g><path d="M 13.082031 -50.589844 L 9.613281 -50.589844 C 6.144531 -50.589844 4.410156 -48.421875 4.410156 -45.097656 L 4.410156 -4.769531 C 4.410156 -1.445312 6.144531 0.722656 9.613281 0.722656 C 13.082031 0.722656 14.886719 -1.445312 14.886719 -4.769531 L 14.886719 -14.742188 L 26.882812 -14.742188 C 37.363281 -14.742188 43.503906 -20.957031 43.503906 -32.953125 C 43.503906 -44.808594 37.363281 -50.589844 26.160156 -50.589844 Z M 14.886719 -24.136719 L 14.886719 -41.191406 L 24.570312 -41.191406 C 29.917969 -41.191406 32.953125 -38.375 32.953125 -32.664062 C 32.953125 -27.027344 29.917969 -24.136719 24.570312 -24.136719 Z M 14.886719 -24.136719 "/></g></g></g><g fill="#023047" fill-opacity="1"><g transform="translate(133.302441, 292.740346)"><g><path d="M 9.105469 -53.550781 C 5.710938 -53.550781 3.398438 -51.167969 3.398438 -47.769531 C 3.398438 -44.371094 5.710938 -41.988281 9.105469 -41.988281 C 12.503906 -41.988281 14.960938 -44.371094 14.960938 -47.769531 C 14.960938 -51.167969 12.503906 -53.550781 9.105469 -53.550781 Z M 9.105469 -36.855469 C 5.925781 -36.855469 4.335938 -34.832031 4.335938 -31.796875 L 4.335938 -4.335938 C 4.335938 -1.375 5.925781 0.722656 9.105469 0.722656 C 12.285156 0.722656 13.949219 -1.375 13.949219 -4.335938 L 13.949219 -31.796875 C 13.949219 -34.832031 12.285156 -36.855469 9.105469 -36.855469 Z M 9.105469 -36.855469 "/></g></g></g><g fill="#023047" fill-opacity="1"><g transform="translate(151.513638, 292.740346)"><g><path d="M 9.105469 -51.3125 C 5.925781 -51.3125 4.410156 -49.289062 4.410156 -46.253906 L 4.410156 -4.335938 C 4.410156 -1.375 5.925781 0.722656 9.105469 0.722656 C 12.285156 0.722656 14.019531 -1.375 14.019531 -4.335938 L 14.019531 -46.253906 C 14.019531 -49.289062 12.285156 -51.3125 9.105469 -51.3125 Z M 9.105469 -51.3125 "/></g></g></g><g fill="#023047" fill-opacity="1"><g transform="translate(169.724834, 292.740346)"><g><path d="M 9.105469 -51.3125 C 5.925781 -51.3125 4.410156 -49.289062 4.410156 -46.253906 L 4.410156 -4.335938 C 4.410156 -1.375 5.925781 0.722656 9.105469 0.722656 C 12.285156 0.722656 14.019531 -1.375 14.019531 -4.335938 L 14.019531 -46.253906 C 14.019531 -49.289062 12.285156 -51.3125 9.105469 -51.3125 Z M 9.105469 -51.3125 "/></g></g></g><g fill="#25bc92" fill-opacity="1"><g transform="translate(185.946731, 290.935373)"><g><path d="M 22.90625 -19.015625 C 21.5625 -19.015625 20.578125 -19.035156 19.953125 -19.078125 C 18.023438 -10.304688 17.0625 -4.429688 17.0625 -1.453125 C 14.363281 -0.191406 10.820312 0.4375 6.4375 0.4375 C 5.226562 0.4375 4.070312 0.363281 2.96875 0.21875 C 2.96875 -2.820312 4.289062 -9.867188 6.9375 -20.921875 C 9.59375 -31.984375 10.921875 -38.835938 10.921875 -41.484375 C 10.921875 -42.304688 10.640625 -43.25 10.078125 -44.3125 C 9.523438 -45.375 8.960938 -46.21875 8.390625 -46.84375 L 7.59375 -47.84375 L 7.875 -49.578125 C 9.707031 -49.921875 12.800781 -50.296875 17.15625 -50.703125 C 21.519531 -51.109375 25.535156 -51.3125 29.203125 -51.3125 C 34.597656 -51.3125 38.597656 -50.203125 41.203125 -47.984375 C 43.804688 -45.773438 45.109375 -42.789062 45.109375 -39.03125 C 45.109375 -33.195312 43.238281 -28.398438 39.5 -24.640625 C 35.769531 -20.890625 30.238281 -19.015625 22.90625 -19.015625 Z M 22.765625 -25.21875 C 25.460938 -25.21875 27.546875 -26.757812 29.015625 -29.84375 C 30.484375 -32.9375 31.21875 -36.648438 31.21875 -40.984375 C 31.21875 -44.503906 30.0625 -46.265625 27.75 -46.265625 L 25.4375 -45.96875 C 25.4375 -44.09375 24.085938 -37.175781 21.390625 -25.21875 Z M 22.765625 -25.21875 "/></g></g></g><g fill="#25bc92" fill-opacity="1"><g transform="translate(228.0724, 290.935373)"><g><path d="M 37.4375 -29.28125 C 36.425781 -26.144531 35.554688 -22.421875 34.828125 -18.109375 C 34.109375 -13.796875 33.75 -10.78125 33.75 -9.0625 C 33.75 -7.351562 34.015625 -6.5 34.546875 -6.5 L 38.171875 -7.515625 L 39.46875 -3.90625 C 37.925781 -2.695312 35.960938 -1.597656 33.578125 -0.609375 C 31.191406 0.378906 29.082031 0.875 27.25 0.875 C 24.113281 0.875 22.140625 -0.476562 21.328125 -3.1875 C 17.515625 -0.476562 14.148438 0.875 11.234375 0.875 C 8.316406 0.875 6.0625 -0.1875 4.46875 -2.3125 C 2.882812 -4.4375 2.09375 -7.472656 2.09375 -11.421875 C 2.09375 -16.867188 3.488281 -21.660156 6.28125 -25.796875 C 9.082031 -29.941406 12.769531 -32.015625 17.34375 -32.015625 C 19.851562 -32.015625 22.410156 -31.316406 25.015625 -29.921875 C 25.398438 -30.785156 25.710938 -31.410156 25.953125 -31.796875 C 29.421875 -31.796875 33.25 -30.957031 37.4375 -29.28125 Z M 15.6875 -12.3125 C 15.6875 -9.882812 15.851562 -8.359375 16.1875 -7.734375 C 16.53125 -7.109375 17.15625 -6.796875 18.0625 -6.796875 C 18.976562 -6.796875 19.875 -7.15625 20.75 -7.875 C 20.9375 -13.46875 21.847656 -19.320312 23.484375 -25.4375 C 22.765625 -25.875 21.9375 -26.09375 21 -26.09375 C 20.0625 -26.09375 19.21875 -25.5625 18.46875 -24.5 C 17.71875 -23.4375 17.148438 -22.113281 16.765625 -20.53125 C 16.046875 -17.488281 15.6875 -14.75 15.6875 -12.3125 Z M 15.6875 -12.3125 "/></g></g></g><g fill="#25bc92" fill-opacity="1"><g transform="translate(266.440725, 290.935373)"><g><path d="M 21.6875 -4.046875 C 20.144531 -2.703125 18.117188 -1.546875 15.609375 -0.578125 C 13.109375 0.390625 10.832031 0.875 8.78125 0.875 C 6.726562 0.875 5.050781 0.285156 3.75 -0.890625 C 2.457031 -2.078125 1.8125 -3.78125 1.8125 -6 C 1.8125 -8.21875 3.023438 -14.394531 5.453125 -24.53125 C 7.890625 -34.675781 9.109375 -42.207031 9.109375 -47.125 C 9.109375 -48.1875 8.960938 -49.535156 8.671875 -51.171875 C 13.203125 -52.421875 17.585938 -53.046875 21.828125 -53.046875 C 22.265625 -52.273438 22.484375 -51.023438 22.484375 -49.296875 C 22.484375 -46.015625 21.265625 -38.867188 18.828125 -27.859375 C 16.390625 -16.847656 15.171875 -10.5 15.171875 -8.8125 C 15.171875 -7.125 15.460938 -6.28125 16.046875 -6.28125 C 16.523438 -6.28125 17.5625 -6.597656 19.15625 -7.234375 L 19.953125 -7.59375 Z M 21.6875 -4.046875 "/></g></g></g></svg>