<svg xmlns="http://www.w3.org/2000/svg" xmlns:xlink="http://www.w3.org/1999/xlink" width="500" zoomAndPan="magnify" viewBox="0 0 375 374.999991" height="500" preserveAspectRatio="xMidYMid meet" version="1.0"><defs><g/></defs><rect x="-37.5" width="450" fill="#ffffff" y="-37.499999" height="449.999989" fill-opacity="1"/><rect x="-37.5" width="450" fill="#ffffff" y="-37.499999" height="449.999989" fill-opacity="1"/><g fill="#023047" fill-opacity="1"><g transform="translate(87.051803, 203.425871)"><g><path d="M 13.082031 -50.589844 L 9.613281 -50.589844 C 6.144531 -50.589844 4.410156 -48.421875 4.410156 -45.097656 L 4.410156 -4.769531 C 4.410156 -1.445312 6.144531 0.722656 9.613281 0.722656 C 13.082031 0.722656 14.886719 -1.445312 14.886719 -4.769531 L 14.886719 -14.742188 L 26.882812 -14.742188 C 37.363281 -14.742188 43.503906 -20.957031 43.503906 -32.953125 C 43.503906 -44.808594 37.363281 -50.589844 26.160156 -50.589844 Z M 14.886719 -24.136719 L 14.886719 -41.191406 L 24.570312 -41.191406 C 29.917969 -41.191406 32.953125 -38.375 32.953125 -32.664062 C 32.953125 -27.027344 29.917969 -24.136719 24.570312 -24.136719 Z M 14.886719 -24.136719 "/></g></g></g><g fill="#023047" fill-opacity="1"><g transform="translate(133.302448, 203.425871)"><g><path d="M 9.105469 -53.550781 C 5.710938 -53.550781 3.398438 -51.167969 3.398438 -47.769531 C 3.398438 -44.371094 5.710938 -41.988281 9.105469 -41.988281 C 12.503906 -41.988281 14.960938 -44.371094 14.960938 -47.769531 C 14.960938 -51.167969 12.503906 -53.550781 9.105469 -53.550781 Z M 9.105469 -36.855469 C 5.925781 -36.855469 4.335938 -34.832031 4.335938 -31.796875 L 4.335938 -4.335938 C 4.335938 -1.375 5.925781 0.722656 9.105469 0.722656 C 12.285156 0.722656 13.949219 -1.375 13.949219 -4.335938 L 13.949219 -31.796875 C 13.949219 -34.832031 12.285156 -36.855469 9.105469 -36.855469 Z M 9.105469 -36.855469 "/></g></g></g><g fill="#023047" fill-opacity="1"><g transform="translate(151.513645, 203.425871)"><g><path d="M 9.105469 -51.3125 C 5.925781 -51.3125 4.410156 -49.289062 4.410156 -46.253906 L 4.410156 -4.335938 C 4.410156 -1.375 5.925781 0.722656 9.105469 0.722656 C 12.285156 0.722656 14.019531 -1.375 14.019531 -4.335938 L 14.019531 -46.253906 C 14.019531 -49.289062 12.285156 -51.3125 9.105469 -51.3125 Z M 9.105469 -51.3125 "/></g></g></g><g fill="#023047" fill-opacity="1"><g transform="translate(169.724842, 203.425871)"><g><path d="M 9.105469 -51.3125 C 5.925781 -51.3125 4.410156 -49.289062 4.410156 -46.253906 L 4.410156 -4.335938 C 4.410156 -1.375 5.925781 0.722656 9.105469 0.722656 C 12.285156 0.722656 14.019531 -1.375 14.019531 -4.335938 L 14.019531 -46.253906 C 14.019531 -49.289062 12.285156 -51.3125 9.105469 -51.3125 Z M 9.105469 -51.3125 "/></g></g></g><g fill="#25bc92" fill-opacity="1"><g transform="translate(185.946731, 201.620898)"><g><path d="M 22.90625 -19.015625 C 21.5625 -19.015625 20.578125 -19.035156 19.953125 -19.078125 C 18.023438 -10.304688 17.0625 -4.429688 17.0625 -1.453125 C 14.363281 -0.191406 10.820312 0.4375 6.4375 0.4375 C 5.226562 0.4375 4.070312 0.363281 2.96875 0.21875 C 2.96875 -2.820312 4.289062 -9.867188 6.9375 -20.921875 C 9.59375 -31.984375 10.921875 -38.835938 10.921875 -41.484375 C 10.921875 -42.304688 10.640625 -43.25 10.078125 -44.3125 C 9.523438 -45.375 8.960938 -46.21875 8.390625 -46.84375 L 7.59375 -47.84375 L 7.875 -49.578125 C 9.707031 -49.921875 12.800781 -50.296875 17.15625 -50.703125 C 21.519531 -51.109375 25.535156 -51.3125 29.203125 -51.3125 C 34.597656 -51.3125 38.597656 -50.203125 41.203125 -47.984375 C 43.804688 -45.773438 45.109375 -42.789062 45.109375 -39.03125 C 45.109375 -33.195312 43.238281 -28.398438 39.5 -24.640625 C 35.769531 -20.890625 30.238281 -19.015625 22.90625 -19.015625 Z M 22.765625 -25.21875 C 25.460938 -25.21875 27.546875 -26.757812 29.015625 -29.84375 C 30.484375 -32.9375 31.21875 -36.648438 31.21875 -40.984375 C 31.21875 -44.503906 30.0625 -46.265625 27.75 -46.265625 L 25.4375 -45.96875 C 25.4375 -44.09375 24.085938 -37.175781 21.390625 -25.21875 Z M 22.765625 -25.21875 "/></g></g></g><g fill="#25bc92" fill-opacity="1"><g transform="translate(228.0724, 201.620898)"><g><path d="M 37.4375 -29.28125 C 36.425781 -26.144531 35.554688 -22.421875 34.828125 -18.109375 C 34.109375 -13.796875 33.75 -10.78125 33.75 -9.0625 C 33.75 -7.351562 34.015625 -6.5 34.546875 -6.5 L 38.171875 -7.515625 L 39.46875 -3.90625 C 37.925781 -2.695312 35.960938 -1.597656 33.578125 -0.609375 C 31.191406 0.378906 29.082031 0.875 27.25 0.875 C 24.113281 0.875 22.140625 -0.476562 21.328125 -3.1875 C 17.515625 -0.476562 14.148438 0.875 11.234375 0.875 C 8.316406 0.875 6.0625 -0.1875 4.46875 -2.3125 C 2.882812 -4.4375 2.09375 -7.472656 2.09375 -11.421875 C 2.09375 -16.867188 3.488281 -21.660156 6.28125 -25.796875 C 9.082031 -29.941406 12.769531 -32.015625 17.34375 -32.015625 C 19.851562 -32.015625 22.410156 -31.316406 25.015625 -29.921875 C 25.398438 -30.785156 25.710938 -31.410156 25.953125 -31.796875 C 29.421875 -31.796875 33.25 -30.957031 37.4375 -29.28125 Z M 15.6875 -12.3125 C 15.6875 -9.882812 15.851562 -8.359375 16.1875 -7.734375 C 16.53125 -7.109375 17.15625 -6.796875 18.0625 -6.796875 C 18.976562 -6.796875 19.875 -7.15625 20.75 -7.875 C 20.9375 -13.46875 21.847656 -19.320312 23.484375 -25.4375 C 22.765625 -25.875 21.9375 -26.09375 21 -26.09375 C 20.0625 -26.09375 19.21875 -25.5625 18.46875 -24.5 C 17.71875 -23.4375 17.148438 -22.113281 16.765625 -20.53125 C 16.046875 -17.488281 15.6875 -14.75 15.6875 -12.3125 Z M 15.6875 -12.3125 "/></g></g></g><g fill="#25bc92" fill-opacity="1"><g transform="translate(266.440725, 201.620898)"><g><path d="M 21.6875 -4.046875 C 20.144531 -2.703125 18.117188 -1.546875 15.609375 -0.578125 C 13.109375 0.390625 10.832031 0.875 8.78125 0.875 C 6.726562 0.875 5.050781 0.285156 3.75 -0.890625 C 2.457031 -2.078125 1.8125 -3.78125 1.8125 -6 C 1.8125 -8.21875 3.023438 -14.394531 5.453125 -24.53125 C 7.890625 -34.675781 9.109375 -42.207031 9.109375 -47.125 C 9.109375 -48.1875 8.960938 -49.535156 8.671875 -51.171875 C 13.203125 -52.421875 17.585938 -53.046875 21.828125 -53.046875 C 22.265625 -52.273438 22.484375 -51.023438 22.484375 -49.296875 C 22.484375 -46.015625 21.265625 -38.867188 18.828125 -27.859375 C 16.390625 -16.847656 15.171875 -10.5 15.171875 -8.8125 C 15.171875 -7.125 15.460938 -6.28125 16.046875 -6.28125 C 16.523438 -6.28125 17.5625 -6.597656 19.15625 -7.234375 L 19.953125 -7.59375 Z M 21.6875 -4.046875 "/></g></g></g><g fill="#0c0b34" fill-opacity="1"><g transform="translate(59.996652, 232.743501)"><g><path d="M 7.640625 0.296875 C 6.117188 0.296875 4.847656 -0.0351562 3.828125 -0.703125 C 2.816406 -1.367188 2.070312 -2.234375 1.59375 -3.296875 C 1.113281 -4.359375 0.875 -5.476562 0.875 -6.65625 C 0.875 -7.78125 1.125 -8.875 1.625 -9.9375 C 2.125 -11 2.867188 -11.875 3.859375 -12.5625 C 4.859375 -13.257812 6.066406 -13.609375 7.484375 -13.609375 C 8.941406 -13.609375 10.179688 -13.257812 11.203125 -12.5625 C 12.222656 -11.875 12.984375 -11 13.484375 -9.9375 C 13.992188 -8.875 14.25 -7.78125 14.25 -6.65625 C 14.25 -5.539062 14 -4.445312 13.5 -3.375 C 13 -2.300781 12.25 -1.421875 11.25 -0.734375 C 10.257812 -0.046875 9.054688 0.296875 7.640625 0.296875 Z M 7.671875 -0.46875 C 8.660156 -0.46875 9.503906 -0.75 10.203125 -1.3125 C 10.910156 -1.882812 11.441406 -2.613281 11.796875 -3.5 C 12.160156 -4.382812 12.34375 -5.3125 12.34375 -6.28125 C 12.34375 -7.363281 12.144531 -8.40625 11.75 -9.40625 C 11.363281 -10.414062 10.796875 -11.238281 10.046875 -11.875 C 9.304688 -12.519531 8.429688 -12.84375 7.421875 -12.84375 C 6.441406 -12.84375 5.59375 -12.5625 4.875 -12 C 4.164062 -11.4375 3.628906 -10.703125 3.265625 -9.796875 C 2.910156 -8.898438 2.734375 -7.960938 2.734375 -6.984375 C 2.734375 -5.984375 2.914062 -4.976562 3.28125 -3.96875 C 3.65625 -2.96875 4.210938 -2.132812 4.953125 -1.46875 C 5.703125 -0.800781 6.609375 -0.46875 7.671875 -0.46875 Z M 7.671875 -0.46875 "/></g></g></g><g fill="#0c0b34" fill-opacity="1"><g transform="translate(75.079574, 232.743501)"><g/></g></g><g fill="#0c0b34" fill-opacity="1"><g transform="translate(80.07555, 232.743501)"><g><path d="M 5.46875 0.296875 C 4.613281 0.296875 3.828125 0.101562 3.109375 -0.28125 C 2.390625 -0.675781 1.820312 -1.238281 1.40625 -1.96875 C 0.988281 -2.707031 0.78125 -3.578125 0.78125 -4.578125 C 0.78125 -5.460938 0.988281 -6.304688 1.40625 -7.109375 C 1.832031 -7.921875 2.421875 -8.570312 3.171875 -9.0625 C 3.929688 -9.550781 4.785156 -9.796875 5.734375 -9.796875 C 6.421875 -9.796875 7.03125 -9.6875 7.5625 -9.46875 C 8.09375 -9.257812 8.503906 -8.976562 8.796875 -8.625 C 9.097656 -8.269531 9.25 -7.882812 9.25 -7.46875 C 9.25 -7.175781 9.164062 -6.929688 9 -6.734375 C 8.84375 -6.546875 8.617188 -6.453125 8.328125 -6.453125 C 8.046875 -6.453125 7.832031 -6.546875 7.6875 -6.734375 C 7.550781 -6.921875 7.484375 -7.113281 7.484375 -7.3125 C 7.484375 -7.632812 7.578125 -7.890625 7.765625 -8.078125 C 7.628906 -8.460938 7.359375 -8.726562 6.953125 -8.875 C 6.554688 -9.019531 6.164062 -9.09375 5.78125 -9.09375 C 5.195312 -9.09375 4.671875 -8.9375 4.203125 -8.625 C 3.742188 -8.3125 3.378906 -7.847656 3.109375 -7.234375 C 2.847656 -6.628906 2.71875 -5.898438 2.71875 -5.046875 C 2.71875 -4.203125 2.851562 -3.453125 3.125 -2.796875 C 3.394531 -2.140625 3.773438 -1.625 4.265625 -1.25 C 4.765625 -0.875 5.335938 -0.6875 5.984375 -0.6875 C 6.554688 -0.6875 7.117188 -0.835938 7.671875 -1.140625 C 8.222656 -1.453125 8.65625 -1.84375 8.96875 -2.3125 L 9.46875 -1.9375 C 9 -1.207031 8.390625 -0.648438 7.640625 -0.265625 C 6.898438 0.109375 6.175781 0.296875 5.46875 0.296875 Z M 5.46875 0.296875 "/></g></g></g><g fill="#0c0b34" fill-opacity="1"><g transform="translate(90.181483, 232.743501)"><g><path d="M 5.546875 0.296875 C 4.671875 0.296875 3.867188 0.09375 3.140625 -0.3125 C 2.410156 -0.726562 1.832031 -1.300781 1.40625 -2.03125 C 0.988281 -2.769531 0.78125 -3.597656 0.78125 -4.515625 C 0.78125 -5.503906 0.988281 -6.398438 1.40625 -7.203125 C 1.820312 -8.015625 2.394531 -8.648438 3.125 -9.109375 C 3.851562 -9.566406 4.660156 -9.796875 5.546875 -9.796875 C 6.421875 -9.796875 7.222656 -9.582031 7.953125 -9.15625 C 8.691406 -8.738281 9.273438 -8.160156 9.703125 -7.421875 C 10.128906 -6.691406 10.34375 -5.878906 10.34375 -4.984375 C 10.34375 -4.015625 10.128906 -3.125 9.703125 -2.3125 C 9.273438 -1.507812 8.695312 -0.875 7.96875 -0.40625 C 7.238281 0.0625 6.429688 0.296875 5.546875 0.296875 Z M 5.703125 -0.453125 C 6.628906 -0.453125 7.304688 -0.832031 7.734375 -1.59375 C 8.171875 -2.351562 8.390625 -3.296875 8.390625 -4.421875 C 8.390625 -5.703125 8.148438 -6.796875 7.671875 -7.703125 C 7.203125 -8.617188 6.492188 -9.078125 5.546875 -9.078125 C 4.609375 -9.078125 3.898438 -8.691406 3.421875 -7.921875 C 2.953125 -7.148438 2.71875 -6.203125 2.71875 -5.078125 C 2.71875 -4.265625 2.828125 -3.503906 3.046875 -2.796875 C 3.265625 -2.097656 3.597656 -1.53125 4.046875 -1.09375 C 4.503906 -0.664062 5.054688 -0.453125 5.703125 -0.453125 Z M 5.703125 -0.453125 "/></g></g></g><g fill="#0c0b34" fill-opacity="1"><g transform="translate(101.29421, 232.743501)"><g><path d="M 0.84375 -0.5625 C 1.207031 -0.5625 1.46875 -0.65625 1.625 -0.84375 C 1.78125 -1.03125 1.875 -1.265625 1.90625 -1.546875 C 1.9375 -1.828125 1.953125 -2.273438 1.953125 -2.890625 L 1.953125 -7.21875 C 1.953125 -7.75 1.976562 -8.160156 2.03125 -8.453125 L 0.6875 -8.375 L 0.6875 -9.171875 C 1.4375 -9.171875 1.945312 -9.210938 2.21875 -9.296875 C 2.5 -9.378906 2.734375 -9.507812 2.921875 -9.6875 L 3.484375 -9.6875 C 3.503906 -9.5 3.523438 -9.164062 3.546875 -8.6875 C 3.941406 -9.03125 4.382812 -9.300781 4.875 -9.5 C 5.375 -9.695312 5.863281 -9.796875 6.34375 -9.796875 C 6.96875 -9.796875 7.5 -9.6875 7.9375 -9.46875 C 8.375 -9.25 8.710938 -8.9375 8.953125 -8.53125 C 9.410156 -8.894531 9.921875 -9.195312 10.484375 -9.4375 C 11.046875 -9.675781 11.585938 -9.796875 12.109375 -9.796875 C 13.222656 -9.796875 14.035156 -9.457031 14.546875 -8.78125 C 15.054688 -8.101562 15.300781 -7.023438 15.28125 -5.546875 L 15.25 -2.015625 C 15.25 -1.441406 15.226562 -1.007812 15.1875 -0.71875 L 16.375 -0.78125 L 16.375 0 L 12.5 0 L 12.5 -0.5625 C 12.863281 -0.5625 13.125 -0.65625 13.28125 -0.84375 C 13.445312 -1.03125 13.546875 -1.265625 13.578125 -1.546875 C 13.609375 -1.828125 13.625 -2.273438 13.625 -2.890625 L 13.625 -5.546875 C 13.625 -6.640625 13.453125 -7.453125 13.109375 -7.984375 C 12.765625 -8.523438 12.226562 -8.796875 11.5 -8.796875 C 11.101562 -8.796875 10.703125 -8.707031 10.296875 -8.53125 C 9.898438 -8.363281 9.550781 -8.140625 9.25 -7.859375 C 9.375 -7.472656 9.4375 -7.015625 9.4375 -6.484375 L 9.40625 -2.015625 C 9.40625 -1.441406 9.378906 -1.007812 9.328125 -0.71875 L 10.53125 -0.78125 L 10.53125 0 L 6.65625 0 L 6.65625 -0.5625 C 7.019531 -0.5625 7.28125 -0.65625 7.4375 -0.84375 C 7.59375 -1.03125 7.679688 -1.257812 7.703125 -1.53125 C 7.734375 -1.800781 7.753906 -2.253906 7.765625 -2.890625 L 7.796875 -5.546875 C 7.804688 -6.648438 7.644531 -7.472656 7.3125 -8.015625 C 6.988281 -8.554688 6.460938 -8.828125 5.734375 -8.828125 C 5.347656 -8.828125 4.957031 -8.742188 4.5625 -8.578125 C 4.175781 -8.421875 3.847656 -8.203125 3.578125 -7.921875 L 3.59375 -6.890625 L 3.59375 -2.015625 C 3.59375 -1.441406 3.566406 -1.007812 3.515625 -0.71875 L 4.71875 -0.78125 L 4.71875 0 L 0.84375 0 Z M 0.84375 -0.5625 "/></g></g></g><g fill="#0c0b34" fill-opacity="1"><g transform="translate(118.276738, 232.743501)"><g><path d="M 0.671875 4.28125 C 1.035156 4.28125 1.296875 4.1875 1.453125 4 C 1.609375 3.8125 1.695312 3.582031 1.71875 3.3125 C 1.75 3.039062 1.769531 2.585938 1.78125 1.953125 L 1.828125 -7.21875 C 1.828125 -7.75 1.851562 -8.160156 1.90625 -8.453125 L 0.546875 -8.375 L 0.546875 -9.171875 C 1.296875 -9.171875 1.8125 -9.210938 2.09375 -9.296875 C 2.375 -9.378906 2.601562 -9.507812 2.78125 -9.6875 L 3.34375 -9.6875 C 3.394531 -9.070312 3.421875 -8.726562 3.421875 -8.65625 C 3.796875 -9 4.25 -9.273438 4.78125 -9.484375 C 5.320312 -9.691406 5.847656 -9.796875 6.359375 -9.796875 C 7.109375 -9.796875 7.800781 -9.601562 8.4375 -9.21875 C 9.070312 -8.832031 9.582031 -8.28125 9.96875 -7.5625 C 10.351562 -6.851562 10.546875 -6.03125 10.546875 -5.09375 C 10.546875 -4.039062 10.320312 -3.101562 9.875 -2.28125 C 9.4375 -1.46875 8.84375 -0.832031 8.09375 -0.375 C 7.351562 0.0703125 6.554688 0.296875 5.703125 0.296875 C 4.828125 0.296875 4.066406 0.0859375 3.421875 -0.328125 L 3.421875 2.828125 C 3.421875 3.398438 3.394531 3.832031 3.34375 4.125 L 4.546875 4.0625 L 4.546875 4.84375 L 0.671875 4.84375 Z M 5.65625 -0.453125 C 6.257812 -0.453125 6.773438 -0.632812 7.203125 -1 C 7.640625 -1.375 7.976562 -1.890625 8.21875 -2.546875 C 8.46875 -3.203125 8.59375 -3.945312 8.59375 -4.78125 C 8.59375 -5.925781 8.347656 -6.894531 7.859375 -7.6875 C 7.367188 -8.476562 6.644531 -8.875 5.6875 -8.875 C 5.257812 -8.875 4.847656 -8.769531 4.453125 -8.5625 C 4.066406 -8.363281 3.726562 -8.113281 3.4375 -7.8125 C 3.445312 -7.71875 3.453125 -7.332031 3.453125 -6.65625 L 3.4375 -1.203125 C 4.082031 -0.703125 4.820312 -0.453125 5.65625 -0.453125 Z M 5.65625 -0.453125 "/></g></g></g><g fill="#0c0b34" fill-opacity="1"><g transform="translate(129.617421, 232.743501)"><g><path d="M 3.5 0.296875 C 2.570312 0.296875 1.863281 0.0859375 1.375 -0.328125 C 0.882812 -0.742188 0.640625 -1.285156 0.640625 -1.953125 C 0.640625 -2.691406 0.929688 -3.3125 1.515625 -3.8125 C 2.109375 -4.320312 2.851562 -4.695312 3.75 -4.9375 C 4.644531 -5.1875 5.539062 -5.304688 6.4375 -5.296875 L 6.4375 -6.484375 C 6.4375 -7.304688 6.316406 -7.945312 6.078125 -8.40625 C 5.835938 -8.863281 5.328125 -9.09375 4.546875 -9.09375 C 4.148438 -9.09375 3.773438 -9.007812 3.421875 -8.84375 C 3.066406 -8.6875 2.804688 -8.441406 2.640625 -8.109375 C 2.804688 -7.929688 2.890625 -7.691406 2.890625 -7.390625 C 2.890625 -7.203125 2.816406 -7.019531 2.671875 -6.84375 C 2.535156 -6.675781 2.335938 -6.59375 2.078125 -6.59375 C 1.804688 -6.59375 1.59375 -6.675781 1.4375 -6.84375 C 1.289062 -7.019531 1.21875 -7.25 1.21875 -7.53125 C 1.21875 -7.945312 1.378906 -8.328125 1.703125 -8.671875 C 2.023438 -9.023438 2.472656 -9.300781 3.046875 -9.5 C 3.617188 -9.695312 4.265625 -9.796875 4.984375 -9.796875 C 6.046875 -9.796875 6.828125 -9.515625 7.328125 -8.953125 C 7.835938 -8.390625 8.085938 -7.5 8.078125 -6.28125 L 8.0625 -2.015625 C 8.0625 -1.609375 8.035156 -1.175781 7.984375 -0.71875 L 9.328125 -0.796875 L 9.328125 0 L 6.609375 0 C 6.578125 -0.1875 6.535156 -0.546875 6.484375 -1.078125 C 5.554688 -0.160156 4.5625 0.296875 3.5 0.296875 Z M 3.9375 -0.78125 C 4.414062 -0.78125 4.847656 -0.867188 5.234375 -1.046875 C 5.628906 -1.234375 6.03125 -1.519531 6.4375 -1.90625 C 6.425781 -2.09375 6.421875 -2.414062 6.421875 -2.875 L 6.4375 -4.65625 C 5.40625 -4.613281 4.484375 -4.398438 3.671875 -4.015625 C 2.859375 -3.628906 2.453125 -3.035156 2.453125 -2.234375 C 2.453125 -1.765625 2.585938 -1.40625 2.859375 -1.15625 C 3.140625 -0.90625 3.5 -0.78125 3.9375 -0.78125 Z M 3.9375 -0.78125 "/></g></g></g><g fill="#0c0b34" fill-opacity="1"><g transform="translate(139.419422, 232.743501)"><g><path d="M 0.84375 -0.5625 C 1.207031 -0.5625 1.46875 -0.65625 1.625 -0.84375 C 1.78125 -1.03125 1.867188 -1.257812 1.890625 -1.53125 C 1.921875 -1.800781 1.941406 -2.253906 1.953125 -2.890625 L 1.96875 -7.21875 C 1.96875 -7.75 1.992188 -8.160156 2.046875 -8.453125 L 0.703125 -8.375 L 0.703125 -9.171875 C 1.453125 -9.171875 1.960938 -9.210938 2.234375 -9.296875 C 2.515625 -9.378906 2.75 -9.507812 2.9375 -9.6875 L 3.5 -9.6875 C 3.519531 -9.445312 3.546875 -9.0625 3.578125 -8.53125 C 4.003906 -8.90625 4.492188 -9.207031 5.046875 -9.4375 C 5.597656 -9.675781 6.140625 -9.796875 6.671875 -9.796875 C 7.773438 -9.796875 8.578125 -9.453125 9.078125 -8.765625 C 9.585938 -8.078125 9.84375 -7.003906 9.84375 -5.546875 L 9.84375 -2.015625 C 9.84375 -1.441406 9.816406 -1.007812 9.765625 -0.71875 L 10.96875 -0.78125 L 10.96875 0 L 7.09375 0 L 7.09375 -0.5625 C 7.457031 -0.5625 7.71875 -0.65625 7.875 -0.84375 C 8.03125 -1.03125 8.125 -1.265625 8.15625 -1.546875 C 8.1875 -1.828125 8.203125 -2.273438 8.203125 -2.890625 L 8.203125 -5.546875 C 8.191406 -6.640625 8.015625 -7.457031 7.671875 -8 C 7.328125 -8.550781 6.789062 -8.828125 6.0625 -8.828125 C 5.601562 -8.828125 5.148438 -8.710938 4.703125 -8.484375 C 4.253906 -8.265625 3.882812 -7.96875 3.59375 -7.59375 C 3.601562 -7.457031 3.609375 -7.210938 3.609375 -6.859375 L 3.59375 -2.015625 C 3.59375 -1.441406 3.566406 -1.007812 3.515625 -0.71875 L 4.71875 -0.78125 L 4.71875 0 L 0.84375 0 Z M 0.84375 -0.5625 "/></g></g></g><g fill="#0c0b34" fill-opacity="1"><g transform="translate(150.950065, 232.743501)"><g><path d="M 0.640625 -0.5625 C 1.015625 -0.5625 1.28125 -0.65625 1.4375 -0.84375 C 1.601562 -1.03125 1.703125 -1.269531 1.734375 -1.5625 C 1.765625 -1.851562 1.78125 -2.296875 1.78125 -2.890625 L 1.78125 -11.875 C 1.78125 -12.351562 1.800781 -12.765625 1.84375 -13.109375 L 0.5 -13.03125 L 0.5 -13.828125 C 1.257812 -13.828125 1.800781 -13.867188 2.125 -13.953125 C 2.445312 -14.046875 2.695312 -14.175781 2.875 -14.34375 L 3.421875 -14.34375 L 3.421875 -8.546875 C 3.859375 -8.910156 4.351562 -9.207031 4.90625 -9.4375 C 5.46875 -9.675781 6.007812 -9.796875 6.53125 -9.796875 C 7.625 -9.796875 8.414062 -9.453125 8.90625 -8.765625 C 9.40625 -8.085938 9.660156 -7.015625 9.671875 -5.546875 L 9.6875 -2.015625 C 9.6875 -1.441406 9.660156 -1.007812 9.609375 -0.71875 L 10.8125 -0.78125 L 10.8125 0 L 6.9375 0 L 6.9375 -0.5625 C 7.300781 -0.5625 7.5625 -0.65625 7.71875 -0.84375 C 7.882812 -1.03125 7.984375 -1.265625 8.015625 -1.546875 C 8.046875 -1.828125 8.0625 -2.273438 8.0625 -2.890625 L 8.0625 -5.546875 C 8.0625 -6.640625 7.890625 -7.453125 7.546875 -7.984375 C 7.203125 -8.523438 6.660156 -8.796875 5.921875 -8.796875 C 5.453125 -8.796875 4.988281 -8.679688 4.53125 -8.453125 C 4.070312 -8.234375 3.703125 -7.957031 3.421875 -7.625 L 3.421875 -2.015625 C 3.421875 -1.515625 3.390625 -1.082031 3.328125 -0.71875 L 4.515625 -0.78125 L 4.515625 0 L 0.640625 0 Z M 0.640625 -0.5625 "/></g></g></g><g fill="#0c0b34" fill-opacity="1"><g transform="translate(162.328741, 232.743501)"><g><path d="M 5.4375 0.296875 C 4.5625 0.296875 3.769531 0.09375 3.0625 -0.3125 C 2.363281 -0.726562 1.8125 -1.316406 1.40625 -2.078125 C 1 -2.847656 0.796875 -3.734375 0.796875 -4.734375 C 0.796875 -5.617188 1 -6.445312 1.40625 -7.21875 C 1.8125 -8 2.378906 -8.625 3.109375 -9.09375 C 3.835938 -9.5625 4.664062 -9.796875 5.59375 -9.796875 C 6.3125 -9.796875 6.960938 -9.640625 7.546875 -9.328125 C 8.128906 -9.015625 8.585938 -8.539062 8.921875 -7.90625 C 9.265625 -7.28125 9.4375 -6.515625 9.4375 -5.609375 L 2.75 -5.484375 C 2.738281 -3.972656 2.988281 -2.789062 3.5 -1.9375 C 4.019531 -1.09375 4.816406 -0.671875 5.890625 -0.671875 C 6.472656 -0.671875 7.070312 -0.820312 7.6875 -1.125 C 8.300781 -1.425781 8.769531 -1.796875 9.09375 -2.234375 L 9.5625 -1.859375 C 9.070312 -1.128906 8.441406 -0.585938 7.671875 -0.234375 C 6.910156 0.117188 6.164062 0.296875 5.4375 0.296875 Z M 7.65625 -6.28125 C 7.65625 -7.039062 7.484375 -7.691406 7.140625 -8.234375 C 6.796875 -8.785156 6.285156 -9.0625 5.609375 -9.0625 C 4.035156 -9.0625 3.101562 -8.132812 2.8125 -6.28125 Z M 7.65625 -6.28125 "/></g></g></g><g fill="#0c0b34" fill-opacity="1"><g transform="translate(172.624635, 232.743501)"><g><path d="M 2.71875 -11.578125 C 2.445312 -11.578125 2.207031 -11.6875 2 -11.90625 C 1.800781 -12.125 1.703125 -12.382812 1.703125 -12.6875 C 1.703125 -12.988281 1.804688 -13.253906 2.015625 -13.484375 C 2.234375 -13.710938 2.472656 -13.828125 2.734375 -13.828125 C 3.023438 -13.828125 3.269531 -13.71875 3.46875 -13.5 C 3.664062 -13.28125 3.765625 -13.007812 3.765625 -12.6875 C 3.765625 -12.382812 3.660156 -12.125 3.453125 -11.90625 C 3.242188 -11.6875 3 -11.578125 2.71875 -11.578125 Z M 0.84375 -0.5625 C 1.207031 -0.5625 1.46875 -0.65625 1.625 -0.84375 C 1.78125 -1.03125 1.875 -1.265625 1.90625 -1.546875 C 1.9375 -1.828125 1.953125 -2.273438 1.953125 -2.890625 L 1.953125 -7.21875 C 1.953125 -7.582031 1.976562 -7.992188 2.03125 -8.453125 L 0.6875 -8.375 L 0.6875 -9.171875 C 1.4375 -9.171875 1.972656 -9.210938 2.296875 -9.296875 C 2.617188 -9.390625 2.867188 -9.519531 3.046875 -9.6875 L 3.59375 -9.6875 L 3.59375 -2.015625 C 3.59375 -1.441406 3.566406 -1.007812 3.515625 -0.71875 L 4.71875 -0.78125 L 4.71875 0 L 0.84375 0 Z M 0.84375 -0.5625 "/></g></g></g><g fill="#0c0b34" fill-opacity="1"><g transform="translate(177.962548, 232.743501)"><g><path d="M 0.84375 -0.5625 C 1.207031 -0.5625 1.46875 -0.65625 1.625 -0.84375 C 1.78125 -1.03125 1.875 -1.265625 1.90625 -1.546875 C 1.9375 -1.828125 1.953125 -2.273438 1.953125 -2.890625 L 1.953125 -7.21875 C 1.953125 -7.75 1.976562 -8.160156 2.03125 -8.453125 L 0.6875 -8.390625 L 0.6875 -9.171875 L 1.265625 -9.171875 C 1.753906 -9.171875 2.101562 -9.210938 2.3125 -9.296875 C 2.53125 -9.378906 2.734375 -9.507812 2.921875 -9.6875 L 3.484375 -9.6875 C 3.523438 -9.195312 3.554688 -8.570312 3.578125 -7.8125 C 3.890625 -8.332031 4.335938 -8.789062 4.921875 -9.1875 C 5.515625 -9.59375 6.128906 -9.796875 6.765625 -9.796875 C 7.140625 -9.796875 7.453125 -9.695312 7.703125 -9.5 C 7.960938 -9.300781 8.09375 -9.003906 8.09375 -8.609375 C 8.09375 -8.398438 8.015625 -8.191406 7.859375 -7.984375 C 7.703125 -7.785156 7.476562 -7.6875 7.1875 -7.6875 C 6.90625 -7.6875 6.675781 -7.789062 6.5 -8 C 6.320312 -8.21875 6.25 -8.472656 6.28125 -8.765625 C 5.800781 -8.773438 5.316406 -8.585938 4.828125 -8.203125 C 4.347656 -7.828125 3.9375 -7.320312 3.59375 -6.6875 L 3.609375 -2.015625 C 3.609375 -1.441406 3.582031 -1.007812 3.53125 -0.71875 L 4.734375 -0.78125 L 4.734375 0 L 0.84375 0 Z M 0.84375 -0.5625 "/></g></g></g><g fill="#0c0b34" fill-opacity="1"><g transform="translate(186.187863, 232.743501)"><g><path d="M 5.546875 0.296875 C 4.671875 0.296875 3.867188 0.09375 3.140625 -0.3125 C 2.410156 -0.726562 1.832031 -1.300781 1.40625 -2.03125 C 0.988281 -2.769531 0.78125 -3.597656 0.78125 -4.515625 C 0.78125 -5.503906 0.988281 -6.398438 1.40625 -7.203125 C 1.820312 -8.015625 2.394531 -8.648438 3.125 -9.109375 C 3.851562 -9.566406 4.660156 -9.796875 5.546875 -9.796875 C 6.421875 -9.796875 7.222656 -9.582031 7.953125 -9.15625 C 8.691406 -8.738281 9.273438 -8.160156 9.703125 -7.421875 C 10.128906 -6.691406 10.34375 -5.878906 10.34375 -4.984375 C 10.34375 -4.015625 10.128906 -3.125 9.703125 -2.3125 C 9.273438 -1.507812 8.695312 -0.875 7.96875 -0.40625 C 7.238281 0.0625 6.429688 0.296875 5.546875 0.296875 Z M 5.703125 -0.453125 C 6.628906 -0.453125 7.304688 -0.832031 7.734375 -1.59375 C 8.171875 -2.351562 8.390625 -3.296875 8.390625 -4.421875 C 8.390625 -5.703125 8.148438 -6.796875 7.671875 -7.703125 C 7.203125 -8.617188 6.492188 -9.078125 5.546875 -9.078125 C 4.609375 -9.078125 3.898438 -8.691406 3.421875 -7.921875 C 2.953125 -7.148438 2.71875 -6.203125 2.71875 -5.078125 C 2.71875 -4.265625 2.828125 -3.503906 3.046875 -2.796875 C 3.265625 -2.097656 3.597656 -1.53125 4.046875 -1.09375 C 4.503906 -0.664062 5.054688 -0.453125 5.703125 -0.453125 Z M 5.703125 -0.453125 "/></g></g></g><g fill="#0c0b34" fill-opacity="1"><g transform="translate(197.30059, 232.743501)"><g/></g></g><g fill="#0c0b34" fill-opacity="1"><g transform="translate(202.296565, 232.743501)"><g><path d="M 4.90625 0.296875 C 4.113281 0.296875 3.40625 0.101562 2.78125 -0.28125 C 2.164062 -0.675781 1.679688 -1.234375 1.328125 -1.953125 C 0.972656 -2.679688 0.796875 -3.523438 0.796875 -4.484375 C 0.796875 -5.492188 1.003906 -6.40625 1.421875 -7.21875 C 1.835938 -8.03125 2.414062 -8.660156 3.15625 -9.109375 C 3.90625 -9.566406 4.75 -9.796875 5.6875 -9.796875 C 6.070312 -9.796875 6.46875 -9.742188 6.875 -9.640625 C 7.289062 -9.535156 7.632812 -9.410156 7.90625 -9.265625 L 7.90625 -11.875 C 7.90625 -12.351562 7.925781 -12.765625 7.96875 -13.109375 L 6.609375 -13.03125 L 6.609375 -13.828125 C 7.359375 -13.828125 7.894531 -13.867188 8.21875 -13.953125 C 8.539062 -14.046875 8.789062 -14.175781 8.96875 -14.34375 L 9.515625 -14.34375 L 9.515625 -2.015625 C 9.515625 -1.609375 9.488281 -1.175781 9.4375 -0.71875 L 10.796875 -0.796875 L 10.796875 0 L 8.078125 0 C 8.015625 -0.34375 7.96875 -0.671875 7.9375 -0.984375 C 7.570312 -0.578125 7.125 -0.257812 6.59375 -0.03125 C 6.070312 0.1875 5.507812 0.296875 4.90625 0.296875 Z M 5.59375 -0.625 C 5.988281 -0.625 6.398438 -0.738281 6.828125 -0.96875 C 7.253906 -1.207031 7.613281 -1.507812 7.90625 -1.875 C 7.894531 -2.082031 7.890625 -2.429688 7.890625 -2.921875 L 7.90625 -8.390625 C 7.3125 -8.835938 6.609375 -9.0625 5.796875 -9.0625 C 4.878906 -9.0625 4.140625 -8.679688 3.578125 -7.921875 C 3.023438 -7.171875 2.75 -6.175781 2.75 -4.9375 C 2.75 -3.644531 2.992188 -2.601562 3.484375 -1.8125 C 3.984375 -1.019531 4.6875 -0.625 5.59375 -0.625 Z M 5.59375 -0.625 "/></g></g></g><g fill="#0c0b34" fill-opacity="1"><g transform="translate(213.656245, 232.743501)"><g><path d="M 3.5 0.296875 C 2.570312 0.296875 1.863281 0.0859375 1.375 -0.328125 C 0.882812 -0.742188 0.640625 -1.285156 0.640625 -1.953125 C 0.640625 -2.691406 0.929688 -3.3125 1.515625 -3.8125 C 2.109375 -4.320312 2.851562 -4.695312 3.75 -4.9375 C 4.644531 -5.1875 5.539062 -5.304688 6.4375 -5.296875 L 6.4375 -6.484375 C 6.4375 -7.304688 6.316406 -7.945312 6.078125 -8.40625 C 5.835938 -8.863281 5.328125 -9.09375 4.546875 -9.09375 C 4.148438 -9.09375 3.773438 -9.007812 3.421875 -8.84375 C 3.066406 -8.6875 2.804688 -8.441406 2.640625 -8.109375 C 2.804688 -7.929688 2.890625 -7.691406 2.890625 -7.390625 C 2.890625 -7.203125 2.816406 -7.019531 2.671875 -6.84375 C 2.535156 -6.675781 2.335938 -6.59375 2.078125 -6.59375 C 1.804688 -6.59375 1.59375 -6.675781 1.4375 -6.84375 C 1.289062 -7.019531 1.21875 -7.25 1.21875 -7.53125 C 1.21875 -7.945312 1.378906 -8.328125 1.703125 -8.671875 C 2.023438 -9.023438 2.472656 -9.300781 3.046875 -9.5 C 3.617188 -9.695312 4.265625 -9.796875 4.984375 -9.796875 C 6.046875 -9.796875 6.828125 -9.515625 7.328125 -8.953125 C 7.835938 -8.390625 8.085938 -7.5 8.078125 -6.28125 L 8.0625 -2.015625 C 8.0625 -1.609375 8.035156 -1.175781 7.984375 -0.71875 L 9.328125 -0.796875 L 9.328125 0 L 6.609375 0 C 6.578125 -0.1875 6.535156 -0.546875 6.484375 -1.078125 C 5.554688 -0.160156 4.5625 0.296875 3.5 0.296875 Z M 3.9375 -0.78125 C 4.414062 -0.78125 4.847656 -0.867188 5.234375 -1.046875 C 5.628906 -1.234375 6.03125 -1.519531 6.4375 -1.90625 C 6.425781 -2.09375 6.421875 -2.414062 6.421875 -2.875 L 6.4375 -4.65625 C 5.40625 -4.613281 4.484375 -4.398438 3.671875 -4.015625 C 2.859375 -3.628906 2.453125 -3.035156 2.453125 -2.234375 C 2.453125 -1.765625 2.585938 -1.40625 2.859375 -1.15625 C 3.140625 -0.90625 3.5 -0.78125 3.9375 -0.78125 Z M 3.9375 -0.78125 "/></g></g></g><g fill="#0c0b34" fill-opacity="1"><g transform="translate(223.458246, 232.743501)"><g/></g></g><g fill="#0c0b34" fill-opacity="1"><g transform="translate(228.454221, 232.743501)"><g><path d="M 4.734375 0.296875 C 4.140625 0.296875 3.59375 0.21875 3.09375 0.0625 C 2.601562 -0.09375 2.179688 -0.289062 1.828125 -0.53125 L 1.90625 0.140625 L 1.109375 0.140625 L 0.984375 -3.140625 L 1.578125 -3.140625 C 1.597656 -2.617188 1.738281 -2.15625 2 -1.75 C 2.257812 -1.34375 2.601562 -1.019531 3.03125 -0.78125 C 3.457031 -0.550781 3.910156 -0.4375 4.390625 -0.4375 C 4.929688 -0.4375 5.414062 -0.566406 5.84375 -0.828125 C 6.269531 -1.085938 6.484375 -1.457031 6.484375 -1.9375 C 6.484375 -2.289062 6.378906 -2.585938 6.171875 -2.828125 C 5.960938 -3.066406 5.703125 -3.265625 5.390625 -3.421875 C 5.078125 -3.585938 4.640625 -3.773438 4.078125 -3.984375 C 3.410156 -4.242188 2.875 -4.484375 2.46875 -4.703125 C 2.0625 -4.921875 1.710938 -5.21875 1.421875 -5.59375 C 1.128906 -5.976562 0.984375 -6.460938 0.984375 -7.046875 C 0.984375 -7.460938 1.082031 -7.878906 1.28125 -8.296875 C 1.488281 -8.722656 1.832031 -9.078125 2.3125 -9.359375 C 2.800781 -9.648438 3.441406 -9.796875 4.234375 -9.796875 C 4.628906 -9.796875 5.03125 -9.734375 5.4375 -9.609375 C 5.851562 -9.484375 6.238281 -9.273438 6.59375 -8.984375 L 6.5625 -9.703125 L 7.359375 -9.703125 L 7.359375 -6.390625 L 6.75 -6.390625 C 6.707031 -7.117188 6.476562 -7.75 6.0625 -8.28125 C 5.65625 -8.820312 5.078125 -9.09375 4.328125 -9.09375 C 3.765625 -9.09375 3.3125 -8.953125 2.96875 -8.671875 C 2.632812 -8.390625 2.46875 -8.050781 2.46875 -7.65625 C 2.46875 -7.289062 2.578125 -6.976562 2.796875 -6.71875 C 3.023438 -6.46875 3.300781 -6.253906 3.625 -6.078125 C 3.957031 -5.898438 4.398438 -5.703125 4.953125 -5.484375 C 5.617188 -5.222656 6.148438 -4.976562 6.546875 -4.75 C 6.953125 -4.519531 7.296875 -4.21875 7.578125 -3.84375 C 7.867188 -3.46875 8.015625 -3.015625 8.015625 -2.484375 C 8.015625 -1.878906 7.859375 -1.367188 7.546875 -0.953125 C 7.242188 -0.535156 6.84375 -0.222656 6.34375 -0.015625 C 5.84375 0.191406 5.304688 0.296875 4.734375 0.296875 Z M 4.734375 0.296875 "/></g></g></g><g fill="#0c0b34" fill-opacity="1"><g transform="translate(237.249429, 232.743501)"><g><path d="M 4.84375 0.296875 C 3.769531 0.296875 2.984375 -0.0078125 2.484375 -0.625 C 1.984375 -1.25 1.734375 -2.320312 1.734375 -3.84375 L 1.734375 -7.21875 C 1.734375 -7.75 1.757812 -8.160156 1.8125 -8.453125 L 0.5 -8.390625 L 0.5 -9.171875 L 1.078125 -9.171875 C 1.578125 -9.171875 1.953125 -9.210938 2.203125 -9.296875 C 2.453125 -9.390625 2.664062 -9.519531 2.84375 -9.6875 L 3.40625 -9.6875 L 3.40625 -3.890625 C 3.40625 -2.773438 3.554688 -1.957031 3.859375 -1.4375 C 4.171875 -0.925781 4.691406 -0.671875 5.421875 -0.671875 C 5.890625 -0.671875 6.347656 -0.804688 6.796875 -1.078125 C 7.242188 -1.359375 7.609375 -1.707031 7.890625 -2.125 L 7.890625 -7.015625 C 7.890625 -7.609375 7.921875 -8.085938 7.984375 -8.453125 L 6.609375 -8.390625 L 6.609375 -9.171875 L 7.203125 -9.171875 C 7.691406 -9.171875 8.0625 -9.210938 8.3125 -9.296875 C 8.570312 -9.390625 8.789062 -9.519531 8.96875 -9.6875 L 9.515625 -9.6875 L 9.5 -2.515625 C 9.5 -1.773438 9.472656 -1.175781 9.421875 -0.71875 L 10.796875 -0.796875 L 10.796875 0 L 8.078125 0 C 8.015625 -0.394531 7.96875 -0.773438 7.9375 -1.140625 C 7.519531 -0.722656 7.03125 -0.378906 6.46875 -0.109375 C 5.914062 0.160156 5.375 0.296875 4.84375 0.296875 Z M 4.84375 0.296875 "/></g></g></g><g fill="#0c0b34" fill-opacity="1"><g transform="translate(248.590111, 232.743501)"><g><path d="M 3.5 0.296875 C 2.570312 0.296875 1.863281 0.0859375 1.375 -0.328125 C 0.882812 -0.742188 0.640625 -1.285156 0.640625 -1.953125 C 0.640625 -2.691406 0.929688 -3.3125 1.515625 -3.8125 C 2.109375 -4.320312 2.851562 -4.695312 3.75 -4.9375 C 4.644531 -5.1875 5.539062 -5.304688 6.4375 -5.296875 L 6.4375 -6.484375 C 6.4375 -7.304688 6.316406 -7.945312 6.078125 -8.40625 C 5.835938 -8.863281 5.328125 -9.09375 4.546875 -9.09375 C 4.148438 -9.09375 3.773438 -9.007812 3.421875 -8.84375 C 3.066406 -8.6875 2.804688 -8.441406 2.640625 -8.109375 C 2.804688 -7.929688 2.890625 -7.691406 2.890625 -7.390625 C 2.890625 -7.203125 2.816406 -7.019531 2.671875 -6.84375 C 2.535156 -6.675781 2.335938 -6.59375 2.078125 -6.59375 C 1.804688 -6.59375 1.59375 -6.675781 1.4375 -6.84375 C 1.289062 -7.019531 1.21875 -7.25 1.21875 -7.53125 C 1.21875 -7.945312 1.378906 -8.328125 1.703125 -8.671875 C 2.023438 -9.023438 2.472656 -9.300781 3.046875 -9.5 C 3.617188 -9.695312 4.265625 -9.796875 4.984375 -9.796875 C 6.046875 -9.796875 6.828125 -9.515625 7.328125 -8.953125 C 7.835938 -8.390625 8.085938 -7.5 8.078125 -6.28125 L 8.0625 -2.015625 C 8.0625 -1.609375 8.035156 -1.175781 7.984375 -0.71875 L 9.328125 -0.796875 L 9.328125 0 L 6.609375 0 C 6.578125 -0.1875 6.535156 -0.546875 6.484375 -1.078125 C 5.554688 -0.160156 4.5625 0.296875 3.5 0.296875 Z M 3.9375 -0.78125 C 4.414062 -0.78125 4.847656 -0.867188 5.234375 -1.046875 C 5.628906 -1.234375 6.03125 -1.519531 6.4375 -1.90625 C 6.425781 -2.09375 6.421875 -2.414062 6.421875 -2.875 L 6.4375 -4.65625 C 5.40625 -4.613281 4.484375 -4.398438 3.671875 -4.015625 C 2.859375 -3.628906 2.453125 -3.035156 2.453125 -2.234375 C 2.453125 -1.765625 2.585938 -1.40625 2.859375 -1.15625 C 3.140625 -0.90625 3.5 -0.78125 3.9375 -0.78125 Z M 3.9375 -0.78125 "/></g></g></g><g fill="#0c0b34" fill-opacity="1"><g transform="translate(258.392101, 232.743501)"><g/></g></g><g fill="#0c0b34" fill-opacity="1"><g transform="translate(263.388087, 232.743501)"><g><path d="M 4.734375 0.296875 C 4.140625 0.296875 3.59375 0.21875 3.09375 0.0625 C 2.601562 -0.09375 2.179688 -0.289062 1.828125 -0.53125 L 1.90625 0.140625 L 1.109375 0.140625 L 0.984375 -3.140625 L 1.578125 -3.140625 C 1.597656 -2.617188 1.738281 -2.15625 2 -1.75 C 2.257812 -1.34375 2.601562 -1.019531 3.03125 -0.78125 C 3.457031 -0.550781 3.910156 -0.4375 4.390625 -0.4375 C 4.929688 -0.4375 5.414062 -0.566406 5.84375 -0.828125 C 6.269531 -1.085938 6.484375 -1.457031 6.484375 -1.9375 C 6.484375 -2.289062 6.378906 -2.585938 6.171875 -2.828125 C 5.960938 -3.066406 5.703125 -3.265625 5.390625 -3.421875 C 5.078125 -3.585938 4.640625 -3.773438 4.078125 -3.984375 C 3.410156 -4.242188 2.875 -4.484375 2.46875 -4.703125 C 2.0625 -4.921875 1.710938 -5.21875 1.421875 -5.59375 C 1.128906 -5.976562 0.984375 -6.460938 0.984375 -7.046875 C 0.984375 -7.460938 1.082031 -7.878906 1.28125 -8.296875 C 1.488281 -8.722656 1.832031 -9.078125 2.3125 -9.359375 C 2.800781 -9.648438 3.441406 -9.796875 4.234375 -9.796875 C 4.628906 -9.796875 5.03125 -9.734375 5.4375 -9.609375 C 5.851562 -9.484375 6.238281 -9.273438 6.59375 -8.984375 L 6.5625 -9.703125 L 7.359375 -9.703125 L 7.359375 -6.390625 L 6.75 -6.390625 C 6.707031 -7.117188 6.476562 -7.75 6.0625 -8.28125 C 5.65625 -8.820312 5.078125 -9.09375 4.328125 -9.09375 C 3.765625 -9.09375 3.3125 -8.953125 2.96875 -8.671875 C 2.632812 -8.390625 2.46875 -8.050781 2.46875 -7.65625 C 2.46875 -7.289062 2.578125 -6.976562 2.796875 -6.71875 C 3.023438 -6.46875 3.300781 -6.253906 3.625 -6.078125 C 3.957031 -5.898438 4.398438 -5.703125 4.953125 -5.484375 C 5.617188 -5.222656 6.148438 -4.976562 6.546875 -4.75 C 6.953125 -4.519531 7.296875 -4.21875 7.578125 -3.84375 C 7.867188 -3.46875 8.015625 -3.015625 8.015625 -2.484375 C 8.015625 -1.878906 7.859375 -1.367188 7.546875 -0.953125 C 7.242188 -0.535156 6.84375 -0.222656 6.34375 -0.015625 C 5.84375 0.191406 5.304688 0.296875 4.734375 0.296875 Z M 4.734375 0.296875 "/></g></g></g><g fill="#0c0b34" fill-opacity="1"><g transform="translate(272.183283, 232.743501)"><g><path d="M 3.5 0.296875 C 2.570312 0.296875 1.863281 0.0859375 1.375 -0.328125 C 0.882812 -0.742188 0.640625 -1.285156 0.640625 -1.953125 C 0.640625 -2.691406 0.929688 -3.3125 1.515625 -3.8125 C 2.109375 -4.320312 2.851562 -4.695312 3.75 -4.9375 C 4.644531 -5.1875 5.539062 -5.304688 6.4375 -5.296875 L 6.4375 -6.484375 C 6.4375 -7.304688 6.316406 -7.945312 6.078125 -8.40625 C 5.835938 -8.863281 5.328125 -9.09375 4.546875 -9.09375 C 4.148438 -9.09375 3.773438 -9.007812 3.421875 -8.84375 C 3.066406 -8.6875 2.804688 -8.441406 2.640625 -8.109375 C 2.804688 -7.929688 2.890625 -7.691406 2.890625 -7.390625 C 2.890625 -7.203125 2.816406 -7.019531 2.671875 -6.84375 C 2.535156 -6.675781 2.335938 -6.59375 2.078125 -6.59375 C 1.804688 -6.59375 1.59375 -6.675781 1.4375 -6.84375 C 1.289062 -7.019531 1.21875 -7.25 1.21875 -7.53125 C 1.21875 -7.945312 1.378906 -8.328125 1.703125 -8.671875 C 2.023438 -9.023438 2.472656 -9.300781 3.046875 -9.5 C 3.617188 -9.695312 4.265625 -9.796875 4.984375 -9.796875 C 6.046875 -9.796875 6.828125 -9.515625 7.328125 -8.953125 C 7.835938 -8.390625 8.085938 -7.5 8.078125 -6.28125 L 8.0625 -2.015625 C 8.0625 -1.609375 8.035156 -1.175781 7.984375 -0.71875 L 9.328125 -0.796875 L 9.328125 0 L 6.609375 0 C 6.578125 -0.1875 6.535156 -0.546875 6.484375 -1.078125 C 5.554688 -0.160156 4.5625 0.296875 3.5 0.296875 Z M 3.9375 -0.78125 C 4.414062 -0.78125 4.847656 -0.867188 5.234375 -1.046875 C 5.628906 -1.234375 6.03125 -1.519531 6.4375 -1.90625 C 6.425781 -2.09375 6.421875 -2.414062 6.421875 -2.875 L 6.4375 -4.65625 C 5.40625 -4.613281 4.484375 -4.398438 3.671875 -4.015625 C 2.859375 -3.628906 2.453125 -3.035156 2.453125 -2.234375 C 2.453125 -1.765625 2.585938 -1.40625 2.859375 -1.15625 C 3.140625 -0.90625 3.5 -0.78125 3.9375 -0.78125 Z M 3.9375 -0.78125 "/></g></g></g><g fill="#0c0b34" fill-opacity="1"><g transform="translate(281.985285, 232.743501)"><g><path d="M 4.84375 0.296875 C 3.769531 0.296875 2.984375 -0.0078125 2.484375 -0.625 C 1.984375 -1.25 1.734375 -2.320312 1.734375 -3.84375 L 1.734375 -7.21875 C 1.734375 -7.75 1.757812 -8.160156 1.8125 -8.453125 L 0.5 -8.390625 L 0.5 -9.171875 L 1.078125 -9.171875 C 1.578125 -9.171875 1.953125 -9.210938 2.203125 -9.296875 C 2.453125 -9.390625 2.664062 -9.519531 2.84375 -9.6875 L 3.40625 -9.6875 L 3.40625 -3.890625 C 3.40625 -2.773438 3.554688 -1.957031 3.859375 -1.4375 C 4.171875 -0.925781 4.691406 -0.671875 5.421875 -0.671875 C 5.890625 -0.671875 6.347656 -0.804688 6.796875 -1.078125 C 7.242188 -1.359375 7.609375 -1.707031 7.890625 -2.125 L 7.890625 -7.015625 C 7.890625 -7.609375 7.921875 -8.085938 7.984375 -8.453125 L 6.609375 -8.390625 L 6.609375 -9.171875 L 7.203125 -9.171875 C 7.691406 -9.171875 8.0625 -9.210938 8.3125 -9.296875 C 8.570312 -9.390625 8.789062 -9.519531 8.96875 -9.6875 L 9.515625 -9.6875 L 9.5 -2.515625 C 9.5 -1.773438 9.472656 -1.175781 9.421875 -0.71875 L 10.796875 -0.796875 L 10.796875 0 L 8.078125 0 C 8.015625 -0.394531 7.96875 -0.773438 7.9375 -1.140625 C 7.519531 -0.722656 7.03125 -0.378906 6.46875 -0.109375 C 5.914062 0.160156 5.375 0.296875 4.84375 0.296875 Z M 6.5625 -13.03125 C 6.820312 -13.3125 6.953125 -13.582031 6.953125 -13.84375 C 6.953125 -14.050781 6.875 -14.234375 6.71875 -14.390625 C 6.570312 -14.484375 6.421875 -14.53125 6.265625 -14.53125 C 5.992188 -14.53125 5.734375 -14.359375 5.484375 -14.015625 L 3.890625 -11.453125 L 4.421875 -11.015625 Z M 6.5625 -13.03125 "/></g></g></g><g fill="#0c0b34" fill-opacity="1"><g transform="translate(293.325967, 232.743501)"><g><path d="M 4.90625 0.296875 C 4.113281 0.296875 3.40625 0.101562 2.78125 -0.28125 C 2.164062 -0.675781 1.679688 -1.234375 1.328125 -1.953125 C 0.972656 -2.679688 0.796875 -3.523438 0.796875 -4.484375 C 0.796875 -5.492188 1.003906 -6.40625 1.421875 -7.21875 C 1.835938 -8.03125 2.414062 -8.660156 3.15625 -9.109375 C 3.90625 -9.566406 4.75 -9.796875 5.6875 -9.796875 C 6.070312 -9.796875 6.46875 -9.742188 6.875 -9.640625 C 7.289062 -9.535156 7.632812 -9.410156 7.90625 -9.265625 L 7.90625 -11.875 C 7.90625 -12.351562 7.925781 -12.765625 7.96875 -13.109375 L 6.609375 -13.03125 L 6.609375 -13.828125 C 7.359375 -13.828125 7.894531 -13.867188 8.21875 -13.953125 C 8.539062 -14.046875 8.789062 -14.175781 8.96875 -14.34375 L 9.515625 -14.34375 L 9.515625 -2.015625 C 9.515625 -1.609375 9.488281 -1.175781 9.4375 -0.71875 L 10.796875 -0.796875 L 10.796875 0 L 8.078125 0 C 8.015625 -0.34375 7.96875 -0.671875 7.9375 -0.984375 C 7.570312 -0.578125 7.125 -0.257812 6.59375 -0.03125 C 6.070312 0.1875 5.507812 0.296875 4.90625 0.296875 Z M 5.59375 -0.625 C 5.988281 -0.625 6.398438 -0.738281 6.828125 -0.96875 C 7.253906 -1.207031 7.613281 -1.507812 7.90625 -1.875 C 7.894531 -2.082031 7.890625 -2.429688 7.890625 -2.921875 L 7.90625 -8.390625 C 7.3125 -8.835938 6.609375 -9.0625 5.796875 -9.0625 C 4.878906 -9.0625 4.140625 -8.679688 3.578125 -7.921875 C 3.023438 -7.171875 2.75 -6.175781 2.75 -4.9375 C 2.75 -3.644531 2.992188 -2.601562 3.484375 -1.8125 C 3.984375 -1.019531 4.6875 -0.625 5.59375 -0.625 Z M 5.59375 -0.625 "/></g></g></g><g fill="#0c0b34" fill-opacity="1"><g transform="translate(304.685646, 232.743501)"><g><path d="M 5.4375 0.296875 C 4.5625 0.296875 3.769531 0.09375 3.0625 -0.3125 C 2.363281 -0.726562 1.8125 -1.316406 1.40625 -2.078125 C 1 -2.847656 0.796875 -3.734375 0.796875 -4.734375 C 0.796875 -5.617188 1 -6.445312 1.40625 -7.21875 C 1.8125 -8 2.378906 -8.625 3.109375 -9.09375 C 3.835938 -9.5625 4.664062 -9.796875 5.59375 -9.796875 C 6.3125 -9.796875 6.960938 -9.640625 7.546875 -9.328125 C 8.128906 -9.015625 8.585938 -8.539062 8.921875 -7.90625 C 9.265625 -7.28125 9.4375 -6.515625 9.4375 -5.609375 L 2.75 -5.484375 C 2.738281 -3.972656 2.988281 -2.789062 3.5 -1.9375 C 4.019531 -1.09375 4.816406 -0.671875 5.890625 -0.671875 C 6.472656 -0.671875 7.070312 -0.820312 7.6875 -1.125 C 8.300781 -1.425781 8.769531 -1.796875 9.09375 -2.234375 L 9.5625 -1.859375 C 9.070312 -1.128906 8.441406 -0.585938 7.671875 -0.234375 C 6.910156 0.117188 6.164062 0.296875 5.4375 0.296875 Z M 7.65625 -6.28125 C 7.65625 -7.039062 7.484375 -7.691406 7.140625 -8.234375 C 6.796875 -8.785156 6.285156 -9.0625 5.609375 -9.0625 C 4.035156 -9.0625 3.101562 -8.132812 2.8125 -6.28125 Z M 7.65625 -6.28125 "/></g></g></g></svg>